<?xml version="1.0" encoding="utf-8" ?>
<svg baseProfile="full" height="200mm" version="1.1" viewBox="0,0,200,200" width="200mm" xmlns="http://www.w3.org/2000/svg" xmlns:ev="http://www.w3.org/2001/xml-events" xmlns:xlink="http://www.w3.org/1999/xlink"><defs /><rect fill="#1a1a1a" height="200" width="200" x="0" y="0" /><text alignment-baseline="middle" fill="#e1ed5e" style="dominant-baseline: central; font-size:9.0px; font-family:Arial;" text-anchor="middle" x="100.0" y="100.0">2020</text><line stroke="#e1ed5e" stroke-width="0.3" x1="100.0" x2="100.0" y1="15.0" y2="10.0" /><path d="M 100.0 14.0 a86.0,86.0 0 0,1 42.35913384403234,11.155469271406648" fill="none" id="id73" stroke="none" /><text fill="#e1ed5e" style="font-size:6.75px; font-family:Arial;" text-anchor="middle"><textPath startOffset="22.145653131862478" xlink:href="#id73">January</textPath></text><path d="M 100.0 79.0 l 0.0 -19.0346076853791 a40.0346076853791,40.0346076853791 0 0,0 0.6872472771275596,0.005899191320787957 l -0.32675435227870486 19.03180289225275" fill="#ff6e0a" stroke="none" /><path d="M 100.36049292484886 79.00309439819443 l 0.5479598245380498 -31.915912674933384 a52.920616250994925,52.920616250994925 0 0,0 0.9081850241919109,0.023391624669120543 l -1.095758162800702 31.90180333291422" fill="#c8ff1d" stroke="none" /><path d="M 100.72087961077811 79.0123766808444 l 1.1142392686079214 -32.43986056383619 a53.45899078142823,53.45899078142823 0 0,0 0.9168833973213246,0.0393749181874227 l -1.6709484265300825 32.41595307722294" fill="#c1ff1e" stroke="none" /><path d="M 101.08105385017728 79.02784411241856 l 1.6693432894483398 -32.38481384665295 a53.427810208220826,53.427810208220826 0 0,0 0.9155380598391974,0.05507649619836787 l -2.2250257014199994 32.35138537262989" fill="#c1ff1e" stroke="none" /><path d="M 101.44090949804482 79.04949213459386 l 2.191362981454182 -31.8619368122784 a52.93720540601681,52.93720540601681 0 0,0 0.9060606168035508,0.07013482206842406 l -2.7379925930329665 31.819624223214923" fill="#c8ff1d" stroke="none" /><path d="M 102.15924093988457 79.11130261209362 l 3.2364014153715686 -31.309247867031754 a52.47607497958809,52.47607497958809 0 0,0 0.8952520804805295,0.10031486293498756 l -3.7733893974528945 31.249077243589795" fill="#cfff1d" stroke="none" /><path d="M 102.51750503828377 79.15144685158666 l 3.7855894771343563 -31.35011140470799 a52.577843067204455,52.577843067204455 0 0,0 0.8951307130319559,0.11589259194318645 l -4.323198012057104 31.28050721656441" fill="#cdff1d" stroke="none" /><path d="M 103.58742460773223 79.30868818359171 l 10.762273823196683 -62.07393544922487 a84.0,84.0 0 0,0 1.4186610657957854,0.2585273042745362 l -11.82626962254352 61.88003997101897" fill="#4dd2ff" stroke="none" /><path d="M 103.94208987418118 79.37332000966035 l 5.958546365252496 -31.177632425032876 a52.74191296089958,52.74191296089958 0 0,0 0.8878310281665893,0.17759107079143707 l -6.492873878950042 31.07075195757858" fill="#cbff1d" stroke="none" /><path d="M 104.29559338865022 79.4440306129975 l 6.4437389151512825 -30.835623368744397 a52.50170534662672,52.50170534662672 0 0,0 0.8806225626033373,0.19192758880731786 l -6.972123894373754 30.72046432180336" fill="#ceff1d" stroke="none" /><line stroke="#e1ed5e" stroke-width="0.3" x1="143.13028292997686" x2="145.6673583964461" y1="26.7553504044142" y2="22.446841604673864" /><path d="M 143.63769802327073 25.89364864446614 a86.0,86.0 0 0,1 29.32050498858742,28.57503671076993" fill="none" id="id74" stroke="none" /><text fill="#e1ed5e" style="font-size:6.75px; font-family:Arial;" text-anchor="middle"><textPath startOffset="20.669276256404974" xlink:href="#id74">February</textPath></text><path d="M 113.03279911837588 83.53348406188908 l 9.260897373120722 -11.700841301289504 a35.9222621379413,35.9222621379413 0 0,0 0.48024511534873565,0.3868514701569465 l -9.460393258824718 11.54014153733915" fill="#ff2703" stroke="none" /><line stroke="#e1ed5e" stroke-width="0.3" x1="172.87174338648825" x2="177.1583165268699" y1="56.24261187166439" y2="53.66864786411523" /><path d="M 173.72905801456457 55.72781907015455 a86.0,86.0 0 0,1 12.242430191666344,42.057860355516425" fill="none" id="id75" stroke="none" /><text fill="#e1ed5e" style="font-size:6.75px; font-family:Arial;" text-anchor="middle"><textPath startOffset="22.145653131862474" xlink:href="#id75">March</textPath></text><line stroke="#e1ed5e" stroke-width="0.3" x1="184.99686870605535" x2="189.99668451229388" y1="99.2704041080226" y2="99.22748670261217" /><path d="M 185.99683186730306 99.26182062694052 a86.0,86.0 0 0,1 -10.086455211305974,41.156179273409016" fill="none" id="id76" stroke="none" /><text fill="#e1ed5e" style="font-size:6.75px; font-family:Arial;" text-anchor="middle"><textPath startOffset="21.40746469413373" xlink:href="#id76">April</textPath></text><line stroke="#e1ed5e" stroke-width="0.3" x1="174.33088141563837" x2="178.70328620479359" y1="141.23008692659167" y2="143.65538615756765" /><path d="M 175.20536237346943 141.71514677278685 a86.0,86.0 0 0,1 -30.301960400862466,31.631185727798858" fill="none" id="id77" stroke="none" /><text fill="#e1ed5e" style="font-size:6.75px; font-family:Arial;" text-anchor="middle"><textPath startOffset="22.145653131862474" xlink:href="#id77">May</textPath></text><line stroke="#e1ed5e" stroke-width="0.3" x1="143.1302829299769" x2="145.66735839644613" y1="173.24464959558577" y2="177.55315839532614" /><path d="M 143.63769802327073 174.10635135553383 a86.0,86.0 0 0,1 -40.68552437913181,11.842963189579606" fill="none" id="id78" stroke="none" /><text fill="#e1ed5e" style="font-size:6.75px; font-family:Arial;" text-anchor="middle"><textPath startOffset="21.407464694133747" xlink:href="#id78">June</textPath></text><line stroke="#e1ed5e" stroke-width="0.3" x1="101.45913802915013" x2="101.54496967792366" y1="184.9874750549273" y2="189.98673829345242" /><path d="M 101.47630435890484 185.9873277026323 a86.0,86.0 0 0,1 -42.54439059252881,-10.42667462771756" fill="none" id="id79" stroke="none" /><text fill="#e1ed5e" style="font-size:6.75px; font-family:Arial;" text-anchor="middle"><textPath startOffset="22.145653131862474" xlink:href="#id79">July</textPath></text><path d="M 96.76829788921471 120.74984581791261 l -1.958519126514433 12.575097739046337 a33.7266995059792,33.7266995059792 0 0,0 -0.5713021791450442,-0.0940075561723394 l 2.174098808712541 -12.53962418437833" fill="#ff0000" stroke="none" /><path d="M 96.41257539226777 120.69131181640829 l -4.313121099929984 24.876936337066724 a46.24806874081921,46.24806874081921 0 0,0 -0.7810754106053175,-0.14233795880318373 l 4.739531244086359 -24.799230204332176" fill="#ffd213" stroke="none" /><path d="M 94.30408787586889 120.21278271476187 l -5.131284818401647 18.209119596930307 a39.918301202350875,39.918301202350875 0 0,0 -0.6579676325680487,-0.19152478851753416 l 5.443112463351302 -18.118351114110254" fill="#ff6c09" stroke="none" /><line stroke="#e1ed5e" stroke-width="0.3" x1="58.13341422392154" x2="55.67067388415222" y1="173.97424548756322" y2="178.32567169271397" /><path d="M 57.64086615596768 174.84453072859336 a86.0,86.0 0 0,1 -31.369924170532247,-30.572349798747897" fill="none" id="id80" stroke="none" /><text fill="#e1ed5e" style="font-size:6.75px; font-family:Arial;" text-anchor="middle"><textPath startOffset="22.145653131862474" xlink:href="#id80">August</textPath></text><line stroke="#e1ed5e" stroke-width="0.3" x1="26.387840678322732" x2="22.057713659400548" y1="142.50000000000003" y2="145.00000000000006" /><path d="M 25.521815274538298 143.00000000000003 a86.0,86.0 0 0,1 -11.493303480769221,-40.785679425670985" fill="none" id="id81" stroke="none" /><text fill="#e1ed5e" style="font-size:6.75px; font-family:Arial;" text-anchor="middle"><textPath startOffset="21.40746469413373" xlink:href="#id81">September</textPath></text><line stroke="#e1ed5e" stroke-width="0.3" x1="15.003131293944662" x2="10.003315487706104" y1="100.72959589197737" y2="100.7725132973878" /><path d="M 14.003168132696942 100.73817937305945 a86.0,86.0 0 0,1 10.791469493833604,-42.45332614584628" fill="none" id="id82" stroke="none" /><text fill="#e1ed5e" style="font-size:6.75px; font-family:Arial;" text-anchor="middle"><textPath startOffset="22.145653131862435" xlink:href="#id82">October</textPath></text><line stroke="#e1ed5e" stroke-width="0.3" x1="26.387840678322718" x2="22.05771365940052" y1="57.49999999999999" y2="54.99999999999999" /><path d="M 25.521815274538284 56.99999999999999 a86.0,86.0 0 0,1 29.574782752854787,-30.34633250058573" fill="none" id="id83" stroke="none" /><text fill="#e1ed5e" style="font-size:6.75px; font-family:Arial;" text-anchor="middle"><textPath startOffset="21.40746469413373" xlink:href="#id83">November</textPath></text><line stroke="#e1ed5e" stroke-width="0.3" x1="56.869717070023135" x2="54.33264160355391" y1="26.7553504044142" y2="22.446841604673864" /><path d="M 56.362301976729285 25.89364864446614 a86.0,86.0 0 0,1 42.16139366436587,-11.88097634709845" fill="none" id="id84" stroke="none" /><text fill="#e1ed5e" style="font-size:6.75px; font-family:Arial;" text-anchor="middle"><textPath startOffset="22.145653131862474" xlink:href="#id84">December</textPath></text></svg>