<?xml version="1.0" encoding="utf-8" ?>
<svg baseProfile="full" height="200mm" version="1.1" viewBox="0,0,200,200" width="200mm" xmlns="http://www.w3.org/2000/svg" xmlns:ev="http://www.w3.org/2001/xml-events" xmlns:xlink="http://www.w3.org/1999/xlink"><defs /><rect fill="#1a1a1a" height="200" width="200" x="0" y="0" /><text alignment-baseline="middle" fill="#e1ed5e" style="dominant-baseline: central; font-size:9.0px; font-family:Arial;" text-anchor="middle" x="100.0" y="100.0">2018</text><line stroke="#e1ed5e" stroke-width="0.3" x1="100.0" x2="100.0" y1="15.0" y2="10.0" /><path d="M 100.0 14.0 a86.0,86.0 0 0,1 42.46469731375804,11.215312516191453" fill="none" id="id49" stroke="none" /><text fill="#e1ed5e" style="font-size:6.75px; font-family:Arial;" text-anchor="middle"><textPath startOffset="22.20632615414155" xlink:href="#id49">January</textPath></text><line stroke="#e1ed5e" stroke-width="0.3" x1="143.23703022742887" x2="145.7803849466894" y1="26.81831364943548" y2="22.513508569990506" /><path d="M 143.74570117128098 25.957352633546492 a86.0,86.0 0 0,1 28.547481713284135,27.462654790039103" fill="none" id="id50" stroke="none" /><text fill="#e1ed5e" style="font-size:6.75px; font-family:Arial;" text-anchor="middle"><textPath startOffset="19.985693538727396" xlink:href="#id50">February</textPath></text><line stroke="#e1ed5e" stroke-width="0.3" x1="172.23445277983987" x2="176.4835382374775" y1="55.19839476539836" y2="52.563006222186495" /><path d="M 173.08426987136738 54.67131705675599 a86.0,86.0 0 0,1 12.851231095245387,41.99856678651699" fill="none" id="id51" stroke="none" /><text fill="#e1ed5e" style="font-size:6.75px; font-family:Arial;" text-anchor="middle"><textPath startOffset="22.20632615414155" xlink:href="#id51">March</textPath></text><line stroke="#e1ed5e" stroke-width="0.3" x1="184.98032266829074" x2="189.97916517819016" y1="98.17113171792111" y2="98.06355123074" /><path d="M 185.9800911702706 98.14961562048488 a86.0,86.0 0 0,1 -9.607161424134198,41.387399972396054" fill="none" id="id52" stroke="none" /><text fill="#e1ed5e" style="font-size:6.75px; font-family:Arial;" text-anchor="middle"><textPath startOffset="21.466115282336823" xlink:href="#id52">April</textPath></text><line stroke="#e1ed5e" stroke-width="0.3" x1="174.80103733775053" x2="179.2010983576182" y1="140.37084112569926" y2="142.7455964860345" /><path d="M 175.68104954172406 140.8457921977663 a86.0,86.0 0 0,1 -30.038265399797805,32.042727171017184" fill="none" id="id53" stroke="none" /><text fill="#e1ed5e" style="font-size:6.75px; font-family:Arial;" text-anchor="middle"><textPath startOffset="22.206326154141568" xlink:href="#id53">May</textPath></text><line stroke="#e1ed5e" stroke-width="0.3" x1="143.8653032363475" x2="146.44561519142675" y1="172.8068346515853" y2="177.08958963109032" /><path d="M 144.38136562736335 173.6633856474863 a86.0,86.0 0 0,1 -40.68145358897372,12.25698825130547" fill="none" id="id54" stroke="none" /><text fill="#e1ed5e" style="font-size:6.75px; font-family:Arial;" text-anchor="middle"><textPath startOffset="21.466115282336833" xlink:href="#id54">June</textPath></text><path d="M 107.93186726928326 119.44442032107085 l 7.543697973484829 18.49285032033874 a40.97230312421709,40.97230312421709 0 0,0 -0.6553206231165961,0.2607656002144141 l -7.224256274326366 -18.619962764959222" fill="#ff8f0d" stroke="none" /><path d="M 107.59598834532513 119.57807347666477 l 7.549206778893949 19.457497601175607 a41.87066687698917,41.87066687698917 0 0,0 -0.6741771117969725,0.2549160966393045 l -7.213159446336702 -19.584561947921543" fill="#ff9e0e" stroke="none" /><path d="M 107.2578585660854 119.70592522655815 l 7.997749391886209 21.714814371515818 a44.14081153557079,44.14081153557079 0 0,0 -0.7152502258801952,0.25646328361650883 l -7.622779605376278 -21.849265196172286" fill="#ffc111" stroke="none" /><path d="M 106.91757812671514 119.82793768551818 l 9.210889102597466 26.40128261785829 a48.961906264208366,48.961906264208366 0 0,0 -0.7981496403489957,0.2707756928237733 l -8.755069729311245 -26.555921297580188" fill="#f5ff19" stroke="none" /><path d="M 106.57524785965236 119.94407469862006 l 5.47920895073877 16.61956399749457 a38.4994753690696,38.4994753690696 0 0,0 -0.6311689330841788,0.202080360715585 l -5.192318672563651 -16.711417204869864" fill="#ff6709" stroke="none" /><path d="M 105.88484417918355 120.15858648285463 l 6.322515292066549 21.657832802970994 a43.56182442401017,43.56182442401017 0 0,0 -0.7216095703625083,0.20393407254761967 l -5.948774553599435 -21.76345566885713" fill="#ffb811" stroke="none" /><path d="M 105.53697534728816 120.25689768951611 l 5.975335553451353 21.860628479423298 a43.662561913687355,43.662561913687355 0 0,0 -0.7266896514365926,0.19192534172386685 l -5.598155459203263 -21.960245170450747" fill="#ffba11" stroke="none" /><path d="M 105.18746579009965 120.34920634021253 l 4.203257826949351 16.48839033983538 a38.015710163216454,38.015710163216454 0 0,0 -0.6354900086167268,0.15618798272289805 l -3.918814533589413 -16.55829958087231" fill="#ff5f08" stroke="none" /><path d="M 104.13013068566511 120.58985236759428 l 4.596701535424616 22.915838067977575 a44.372319083983626,44.372319083983626 0 0,0 -0.750171918636771,0.14377223363095143 l -4.20156200221614 -22.991567499956993" fill="#ffc512" stroke="none" /><path d="M 103.06178313531738 120.77559828337769 l 3.3817087636868064 22.946439927546415 a44.19428937283685,44.19428937283685 0 0,0 -0.753557688439456,0.10443622918441357 l -2.98622248406052 -23.00125072222343" fill="#ffc212" stroke="none" /><line stroke="#e1ed5e" stroke-width="0.3" x1="102.19456741930631" x2="102.32365962044197" y1="184.97166512339345" y2="189.96999836594603" /><path d="M 102.22038585953345 185.97133177190398 a86.0,86.0 0 0,1 -42.740103519485714,-10.115201625700543" fill="none" id="id55" stroke="none" /><text fill="#e1ed5e" style="font-size:6.75px; font-family:Arial;" text-anchor="middle"><textPath startOffset="22.20632615414155" xlink:href="#id55">July</textPath></text><line stroke="#e1ed5e" stroke-width="0.3" x1="58.666819895761336" x2="56.23545636021788" y1="174.27360380694188" y2="178.64263932499728" /><path d="M 58.180547188652646 175.14741091055294 a86.0,86.0 0 0,1 -31.652253787137756,-30.449443065178592" fill="none" id="id56" stroke="none" /><text fill="#e1ed5e" style="font-size:6.75px; font-family:Arial;" text-anchor="middle"><textPath startOffset="22.20632615414155" xlink:href="#id56">August</textPath></text><line stroke="#e1ed5e" stroke-width="0.3" x1="26.63291911575756" x2="22.317208475507996" y1="142.92168965132927" y2="145.44649492493687" /><path d="M 25.769776987707644 143.4266507060508 a86.0,86.0 0 0,1 -11.730757126820373,-40.83630448921669" fill="none" id="id57" stroke="none" /><text fill="#e1ed5e" style="font-size:6.75px; font-family:Arial;" text-anchor="middle"><textPath startOffset="21.46611528233685" xlink:href="#id57">September</textPath></text><path d="M 80.58989483394504 108.01547362559985 l -25.90418510795995 10.697227590947174 a49.02601441946349,49.02601441946349 0 0,0 -0.31539458959281563,-0.7827835060473262 l 26.084482311810156 -10.249744717057043" fill="#f4ff19" stroke="none" /><path d="M 80.45479744820244 107.68017299344265 l -28.503060477488653 11.200110857359116 a51.624613300424045,51.624613300424045 0 0,0 -0.31787418159608777,-0.8298691819797461 l 28.69162893867825 -10.707818108546212" fill="#cfff1d" stroke="none" /><path d="M 80.32549172779594 107.34259656027581 l -27.2702360368118 10.177349215110642 a50.10745970622895,50.10745970622895 0 0,0 -0.2946216960179791,-0.810672372458024 l 27.441381993835 -9.7064290456465" fill="#e5ff1a" stroke="none" /><path d="M 80.20201598880116 107.00284435728193 l -26.65573481922378 9.428533837708732 a49.2741127019328,49.2741127019328 0 0,0 -0.27595654528019187,-0.8020588929797634 l 26.814082195447202 -8.968302241639673" fill="#f1ff19" stroke="none" /><path d="M 80.0844068197444 106.66101706037122 l -28.728676309913393 9.608661981101973 a51.292956732330595,51.292956732330595 0 0,0 -0.27284860644236053,-0.8397416641888663 l 28.889817167372005 -9.112721416935305" fill="#d4ff1c" stroke="none" /><path d="M 79.97269907076064 106.31721596034903 l -26.806562350369617 8.455599889379503 a49.10852103070399,49.10852103070399 0 0,0 -0.24735079842229213,-0.8083567208654704 l 26.94813992129804 -7.9929161959619845" fill="#f3ff19" stroke="none" /><path d="M 79.86692584326677 105.97154293290107 l -27.24388005095233 8.080633792761363 a49.416995666737805,49.416995666737805 0 0,0 -0.23486571573847245,-0.8175983679728488 l 27.378938403576907 -7.610477949283919" fill="#efff19" stroke="none" /><path d="M 79.76711848015287 105.62410040840567 l -29.819277143370496 8.28881484804242 a51.94985849625595,51.94985849625595 0 0,0 -0.2320721980622076,-0.8636269819662246 l 29.95753741777448 -7.774296932900658" fill="#cbff1d" stroke="none" /><path d="M 79.67330655649465 105.27499134158121 l -28.522578164347024 7.401909871601704 a50.46736728804595,50.46736728804595 0 0,0 -0.2109744688193386,-0.8427381298487839 l 28.645763947461422 -6.9098439023555285" fill="#e0ff1b" stroke="none" /><path d="M 79.58551787078972 104.9243191809786 l -27.820454892775256 6.710765366710911 a49.61838713568585,49.61838713568585 0 0,0 -0.19313232780521827,-0.8320090134422519 l 27.931847786511028 -6.230887695920085" fill="#ecff1a" stroke="none" /><path d="M 79.50377843672027 104.57218783832718 l -27.413889037108177 6.115344219408411 a49.08769743251895,49.08769743251895 0 0,0 -0.1768698958588261,-0.8262772704321956 l 27.51509297169144 -5.642553129560051" fill="#f3ff19" stroke="none" /><path d="M 79.29508885075956 103.50808413554451 l -55.023267689579015 9.32272788210985 a76.80746583032541,76.80746583032541 0 0,0 -0.20964139015949326,-1.3054371366415198 l 55.1755908340998 -8.374211515775118" fill="#42ffd9" stroke="none" /><path d="M 79.23777060512086 103.15116336523772 l -27.9972731241839 4.249253763530944 a49.31789999164896,49.31789999164896 0 0,0 -0.12016176928291346,-0.8404111344966354 l 28.06626894448341 -3.766697157053908" fill="#f0ff19" stroke="none" /><path d="M 79.10278846688536 102.07522291339032 l -29.17665651015481 2.8974232294124413 a50.32016961891418,50.32016961891418 0 0,0 -0.0781769452011011,-0.8626760759143861 l 29.222208051632986 -2.3947657649494887" fill="#e2ff1b" stroke="none" /><path d="M 79.07016306316243 101.71520430193888 l -29.34668336953697 2.404966542021877 a50.445062215252705,50.445062215252705 0 0,0 -0.06347295914850874,-0.8660380980805157 l 29.383732887349815 -1.899455307444601" fill="#e0ff1b" stroke="none" /><path d="M 79.0235259727143 100.99374915477108 l -30.10753111096695 1.4263280642327687 a51.14129793729296,51.14129793729296 0 0,0 -0.034089004492542006,-0.8796857348660176 l 30.127622248310693 -0.9078650823527541" fill="#d6ff1c" stroke="none" /><path d="M 79.0095281055655 100.63252640178507 l -27.973797611424356 0.8429617798211431 a48.9864956249826,48.9864956249826 0 0,0 -0.018143518678679582,-0.8430580194105243 l 27.984163192788046 -0.3613139446204899" fill="#f5ff19" stroke="none" /><line stroke="#e1ed5e" stroke-width="0.3" x1="15.007084014347285" x2="10.007500721073583" y1="101.09737516637583" y2="101.16192664675087" /><path d="M 14.007167355692545 101.11028546245083 a86.0,86.0 0 0,1 10.666146001902534,-42.60595125391555" fill="none" id="id58" stroke="none" /><text fill="#e1ed5e" style="font-size:6.75px; font-family:Arial;" text-anchor="middle"><textPath startOffset="22.20632615414155" xlink:href="#id58">October</textPath></text><path d="M 79.00175016825051 100.2711162175752 l -28.155105881474114 0.36352104928635726 a49.15745256144974,49.15745256144974 0 0,0 -0.003641637247189257,-0.8461882465055495 l 28.157191816010805 0.12117667542286761" fill="#f2ff19" stroke="none" /><path d="M 79.00019446554 99.90962569577889 l -28.986625636124053 -0.1247462086867445 a49.9868940624101,49.9868940624101 0 0,0 0.011108975180798796,-0.8604023702730252 l 28.98018365382554 0.6236848370202417" fill="#e6ff1a" stroke="none" /><path d="M 79.00486145842228 99.54816195383935 l -31.543367412931293 -0.6788473185333558 a52.550671330877506,52.550671330877506 0 0,0 0.027247036476741315,-0.9041964916525497 l 31.527008681998907 1.2217139576108997" fill="#c2ff1e" stroke="none" /><path d="M 79.01574976396665 99.18683210126434 l -29.993872790539243 -1.162302881336481 a51.01638474172087,51.01638474172087 0 0,0 0.041557441138211006,-0.8772119004991806 l 29.969421741167533 1.6784258884586707" fill="#d8ff1c" stroke="none" /><path d="M 79.05617556472873 98.46500227214037 l -28.206857363694517 -2.06731402362288 a49.282513848809046,49.282513848809046 0 0,0 0.06929007905042242,-0.845514469749563 l 28.167092800824598 2.5525424105802217" fill="#f0ff19" stroke="none" /><path d="M 79.08570108090925 98.10471618934814 l -55.73922355084197 -5.051168505475682 a76.967627654935,76.967627654935 0 0,0 0.13092880425020303,-1.3184351910052623 l 55.64401762090954 6.009879227185375" fill="#43ffdb" stroke="none" /><path d="M 79.12142395522702 97.74499172005258 l -39.89659898510424 -4.309065946845336 a61.128626439394644,61.128626439394644 0 0,0 0.12199424549764339,-1.0451721947935741 l 39.81651438660301 4.995181879963772" fill="#53ff2b" stroke="none" /><path d="M 79.21141760316559 97.0276538004421 l -39.103572682372096 -5.591018831052366 a60.50125172820147,60.50125172820147 0 0,0 0.1562779212285791,-1.0296762413832705 l 39.00153886770421 6.263294184827728" fill="#5bff2a" stroke="none" /><path d="M 79.26566170972629 96.67025291283419 l -31.110072202367512 -4.995996054812309 a52.508674504272946,52.508674504272946 0 0,0 0.15099529082636046,-0.8911827538105345 l 31.01946505002093 5.530764596938672" fill="#c3ff1e" stroke="none" /><path d="M 79.32604984820605 96.31383870115002 l -39.432373375842815 -7.030784518323966 a61.054263206242865,61.054263206242865 0 0,0 0.19338000568476263,-1.0330437229308727 l 39.30550764624819 7.708506318717411" fill="#54ff2b" stroke="none" /><path d="M 79.3925641242962 95.95851677861259 l -27.503835684375037 -5.393989388716307 a49.02777370535672,49.02777370535672 0 0,0 0.1695443545811105,-0.826758485389459 l 27.406912033878932 5.866623530269168" fill="#f4ff19" stroke="none" /><path d="M 79.46518482838121 95.60439243477599 l -27.3506071106323 -5.854571103962244 a48.97019328019597,48.97019328019597 0 0,0 0.18353471813078684,-0.8227501538386205 l 27.245778005499474 6.3244994273508235" fill="#f5ff19" stroke="none" /><path d="M 79.54389044137918 95.25157060432595 l -28.842008964793177 -6.695028827756823 a50.60886509357805,50.60886509357805 0 0,0 0.2042843702838481,-0.8468906001352653 l 28.722491794248516 7.190504659551484" fill="#deff1b" stroke="none" /><path d="M 79.62865764111835 94.90015583598534 l -13.615881331365479 -3.408654752464352 a35.036066103126075,35.036066103126075 0 0,0 0.15149539614277305,-0.5837735601995288 l 13.5551896033524 3.6425247382127446" fill="#ff2d04" stroke="none" /><path d="M 79.71946130924805 94.55025226153421 l -55.58643553380092 -14.9370811080992 a78.5583895482087,78.5583895482087 0 0,0 0.3621662567270445,-1.3029047191072654 l 55.321082506507516 15.891697130625408" fill="#45ffee" stroke="none" /><path d="M 79.81627453868168 94.20196356495316 l -27.874012288677772 -8.007170883810726 a50.00129905076505,50.00129905076505 0 0,0 0.24475422281774534,-0.8251895654996824 l 27.732052168748318 8.485789836056947" fill="#e6ff1a" stroke="none" /><path d="M 79.91906864156998 93.8553929516997 l -32.44462682746791 -9.92780061467821 a54.92955990015867,54.92955990015867 0 0,0 0.28444230562705825,-0.9017598397071428 l 32.26892903807265 10.484810620811768" fill="#a2ff22" stroke="none" /><path d="M 80.02781315780177 93.51064311812611 l -26.921897470161504 -8.747454748018319 a49.30735819469059,49.30735819469059 0 0,0 0.2692245298841809,-0.8049470768087327 l 26.76733564650555 9.209574927749374" fill="#f0ff19" stroke="none" /><path d="M 80.14247586403 93.16781622104843 l -27.9582785462916 -9.619330983230473 a50.566820387673864,50.566820387673864 0 0,0 0.2902702100465617,-0.8206329720084995 l 27.788555255435227 10.099161581665584" fill="#deff1b" stroke="none" /><path d="M 80.2630227832202 92.82701384747504 l -26.436143105763218 -9.607656042820635 a49.12786371101687,49.12786371101687 0 0,0 0.29569221665666356,-0.7923081317189167 l 26.266846300604925 10.061287311568892" fill="#f3ff19" stroke="none" /><path d="M 80.38941819471856 92.48833698450439 l -28.932301496215533 -11.082266771083786 a51.982167558990824,51.982167558990824 0 0,0 0.32725608773472836,-0.8328310477570299 l 28.737251858599116 11.578646823736578" fill="#caff1d" stroke="none" /><path d="M 80.52162464483688 92.15188598940014 l -36.73733644727038 -14.801994500404714 a60.60720806153789,60.60720806153789 0 0,0 0.39821334908895784,-0.964305210818423 l 36.47710141129522 15.432174281676447" fill="#59ff2a" stroke="none" /><path d="M 80.803312248108 91.48605970444005 l -16.04324467892354 -7.115353914633135 a38.55032652568873,38.55032652568873 0 0,0 0.2742537839640068,-0.6042818592480211 l 15.91838857799618 7.390457782723227" fill="#ff6809" stroke="none" /><path d="M 80.95270993114464 91.15688171328213 l -50.58054250192311 -23.483115904358492 a76.76601126462592,76.76601126462592 0 0,0 0.5667590970491453,-1.193739199975616 l 50.168825211032214 24.35029751997464" fill="#42ffd9" stroke="none" /><path d="M 81.10775173730289 90.83032412892265 l -26.491462465488276 -12.858084478964981 a50.44703584452218,50.44703584452218 0 0,0 0.38589577069536973,-0.7779423260427477 l 26.266206681839492 13.31218639350669" fill="#e0ff1b" stroke="none" /><path d="M 81.26839172434947 90.50648371742162 l -26.971604014003383 -13.669694460087944 a51.23785656623767,51.23785656623767 0 0,0 0.4054880203049434,-0.7832737909845082 l 26.732306560538323 14.131940973332789" fill="#d5ff1c" stroke="none" /><path d="M 81.43458229118936 90.18545643968196 l -25.860256580549375 -13.67093478162646 a50.25145001902182,50.25145001902182 0 0,0 0.410846046228277,-0.7612353269604103 l 25.621102435102628 14.114051091919343" fill="#e3ff1b" stroke="none" /><path d="M 81.6062741919709 89.86733742301443 l -19.64577200215934 -10.822384808812183 a43.429453192417256,43.429453192417256 0 0,0 0.3663426559945128,-0.6516827074021948 l 19.4565717048724 11.158951026149163" fill="#ffb610" stroke="none" /><line stroke="#e1ed5e" stroke-width="0.3" x1="26.266209847984243" x2="21.928928074336255" y1="57.711370442889674" y2="55.22380399835377" /><path d="M 25.398753493254645 57.213857153982495 a86.0,86.0 0 0,1 29.58750427330803,-30.492523968695096" fill="none" id="id59" stroke="none" /><text fill="#e1ed5e" style="font-size:6.75px; font-family:Arial;" text-anchor="middle"><textPath startOffset="21.46611528233685" xlink:href="#id59">November</textPath></text><path d="M 81.78341655067845 89.55222093294921 l -25.997424754720857 -14.910334361283129 a50.96972079687485,50.96972079687485 0 0,0 0.44304902030562776,-0.7573143921523311 l 25.736916059944903 15.355628165789351" fill="#d8ff1c" stroke="none" /><path d="M 81.96595687620814 89.24020034530311 l -25.909481311103885 -15.458587192619197 a51.17066687698917,51.17066687698917 0 0,0 0.457817137968811,-0.752530999909503 l 25.639548374848857 15.902285965735773" fill="#d6ff1c" stroke="none" /><path d="M 82.15384107792192 88.93136811851018 l -24.42565983503156 -15.1494020846125 a49.74225533770681,49.74225533770681 0 0,0 0.45756338246342465,-0.7237553869731636 l 24.16126885632217 15.56760511929988" fill="#eaff1a" stroke="none" /><path d="M 82.34701348167596 88.62581576622439 l -25.80840388075205 -16.628888274210972 a51.70168783810116,51.70168783810116 0 0,0 0.488466134512084,-0.7439674345971293 l 25.518341110882044 17.070673772785767" fill="#ceff1d" stroke="none" /><path d="M 82.54541684631803 88.32363383020206 l -23.37553725491685 -15.63723006164067 a49.12363251709644,49.12363251709644 0 0,0 0.4762080827600166,-0.6987766004592728 l 23.102904706488093 16.03728468537036" fill="#f3ff19" stroke="none" /><path d="M 82.7489923806493 88.02491185347247 l -23.014353450444954 -15.975815284857612 a49.01583728461274,49.01583728461274 0 0,0 0.48709460338310573,-0.6889607728793744 l 22.73594622725797 16.36960255806877" fill="#f4ff19" stroke="none" /><path d="M 82.95767976084542 87.72973835380427 l -31.79376174759384 -22.891118690722262 a60.17711833424576,60.17711833424576 0 0,0 0.6124809552009345,-0.8354233345741401 l 31.395018179879273 23.435004468967904" fill="#5fff29" stroke="none" /><path d="M 83.17141714833178 87.43820079747576 l -31.81004293203721 -23.74480224853367 a60.695018140316044,60.695018140316044 0 0,0 0.6321647988486326,-0.8318547737600105 l 31.396602192964465 24.28884179817471" fill="#58ff2a" stroke="none" /><path d="M 83.39014120810768 87.1503855733568 l -23.13406729633867 -17.896831550613175 a50.24861790277533,50.24861790277533 0 0,0 0.5351380166546874,-0.6795709370350119 l 22.82257519909001 18.292394881601236" fill="#e3ff1b" stroke="none" /><path d="M 83.6137871275137 86.86637796730984 l -22.0125426554959 -17.64315021814353 a49.21050839279584,49.21050839279584 0 0,0 0.5354607320686281,-0.6564115439264974 l 21.705583431350878 18.019445931678106" fill="#f2ff19" stroke="none" /><path d="M 83.84228863543731 86.58626213691792 l -47.70284255469474 -39.601736342185866 a82.99886054690037,82.99886054690037 0 0,0 0.9220358694406723,-1.0913996443336953 l 47.01409607176694 40.416994936148676" fill="#4cddff" stroke="none" /><path d="M 84.07557802195018 86.31012108654704 l -27.485982489418237 -23.62910079977077 a57.24656725835336,57.24656725835336 0 0,0 0.6488166090345867,-0.7417095434180896 l 27.075174016805807 24.098725899391802" fill="#84ff25" stroke="none" /><path d="M 84.31358615837235 86.03803664274999 l -8.53364517554808 -7.595518162895338 a32.424316003377534,32.424316003377534 0 0,0 0.37466507032830965,-0.4137145284664828 l 8.401636464603726 7.741285478631378" fill="#ff0000" stroke="none" /><path d="M 84.5562425177563 85.77008943001954 l -22.200702569995634 -20.45577396077296 a51.18790954895101,51.18790954895101 0 0,0 0.6026344743105347,-0.6428484397208798 l 21.84530077371464 20.83489181737189" fill="#d5ff1c" stroke="none" /><path d="M 85.05521093208273 85.24692304244772 l -32.17216998311765 -31.759464619766266 a66.2074342819497,66.2074342819497 0 0,0 0.8076178298005162,-0.8041496621792518 l 31.62071635314982 32.30855013259563" fill="#32ff4d" stroke="none" /><path d="M 85.31137513191541 84.99185889309783 l -23.46692779562315 -23.977395220123398 a54.55014428742426,54.55014428742426 0 0,0 0.6767250785825635,-0.651008989427842 l 23.050719473428156 24.377787296313553" fill="#a7ff21" stroke="none" /><path d="M 85.57189188830299 84.74124197986013 l -27.086000425256817 -28.64538600783936 a60.42346456839038,60.42346456839038 0 0,0 0.7618884310243151,-0.708092263036281 l 26.588904110437646 29.107382856950288" fill="#5cff2a" stroke="none" /><path d="M 85.83668400450813 84.49514656593479 l -20.937207892918618 -22.920362703309348 a52.04367408672092,52.04367408672092 0 0,0 0.6666274521173426,-0.5985047085348429 l 20.539569453205303 23.27736642061347" fill="#c9ff1d" stroke="none" /><path d="M 86.10567301691215 84.25364557470407 l -22.67800881013593 -25.700846454746667 a55.2757289066632,55.2757289066632 0 0,0 0.7188640166061677,-0.6233917913972158 l 22.232250994882985 26.087403239563564" fill="#9eff22" stroke="none" /><path d="M 86.37877921826538 84.01681056812374 l -18.125093538061655 -21.268049915010906 a48.943674829035636,48.943674829035636 0 0,0 0.6459224091614919,-0.5409414419387033 l 17.756313591941055 21.57689251434342" fill="#f5ff19" stroke="none" /><path d="M 86.65592168130627 83.78471172551755 l -35.58473006813129 -43.24140209939035 a77.0008202577688,77.0008202577688 0 0,0 1.0306985182002177,-0.8334198547738656 l 34.835128151366575 43.847528051428355" fill="#43ffdb" stroke="none" /><path d="M 86.93701828274178 83.55741782278169 l -17.532865434092685 -22.068895673436433 a49.185768156554175,49.185768156554175 0 0,0 0.6674448892425776,-0.5209513228892355 l 17.15038798969068 22.36742538554889" fill="#f2ff19" stroke="none" /><path d="M 87.22198572758235 83.33499621200491 l -20.397325155439088 -26.60205989236584 a54.52194003952825,54.52194003952825 0 0,0 0.7496866614746773,-0.5646484507882819 l 19.936392340206023 26.949224932659977" fill="#a8ff21" stroke="none" /><path d="M 87.51073957382395 83.11751280151077 l -37.467781278528136 -50.64746159546771 a84.0,84.0 0 0,0 1.1698187345848732,-0.8499230607333286 l 36.59041722758948 51.284903891017706" fill="#4dd2ff" stroke="none" /><path d="M 87.80319425747018 82.90503203632743 l -16.340568625408274 -22.902840551562917 a49.134574607269116,49.134574607269116 0 0,0 0.6927246433817043,-0.4852978818044532 l 15.943912842442911 23.180723276131314" fill="#f3ff19" stroke="none" /><path d="M 88.09926311788651 82.69761687909137 l -19.01377755039455 -27.643974235504054 a54.551647474738104,54.551647474738104 0 0,0 0.778257975991471,-0.5254832594581956 l 18.53511487999654 27.96716940726091" fill="#a7ff21" stroke="none" /><path d="M 88.39885842347998 82.49532879139004 l -7.1611148399338695 -10.805226359261606 a33.96281151701292,33.96281151701292 0 0,0 0.49008818032038537,-0.3187669851700087 l 6.974059633829197 10.92689226859115" fill="#ff1b02" stroke="none" /><path d="M 88.70189139769569 82.29822771554957 l -15.112129506836355 -23.677545036925984 a49.08919004184799,49.08919004184799 0 0,0 0.7161898883038796,-0.4484780423525048 l 14.702320466160232 23.93416742060142" fill="#f3ff19" stroke="none" /><path d="M 89.00827224532344 82.1063720568725 l -14.92703837507709 -24.299989677489567 a49.51851982444256,49.51851982444256 0 0,0 0.7301339124952749,-0.43989751275430183 l 14.506542396364166 24.553333799702486" fill="#edff1a" stroke="none" /><line stroke="#e1ed5e" stroke-width="0.3" x1="56.762969772571076" x2="54.21961505331055" y1="26.818313649435495" y2="22.513508569990535" /><path d="M 56.25429882871897 25.957352633546506 a86.0,86.0 0 0,1 42.265352541879196,-11.944610805530505" fill="none" id="id60" stroke="none" /><text fill="#e1ed5e" style="font-size:6.75px; font-family:Arial;" text-anchor="middle"><textPath startOffset="22.20632615414155" xlink:href="#id60">December</textPath></text><path d="M 89.3179101791058 81.91981866633112 l -17.918580272802455 -30.328445651194727 a56.22627051804289,56.22627051804289 0 0,0 0.8375124352063168,-0.48514126015866327 l 17.393871105130817 30.632391068743438" fill="#91ff24" stroke="none" /><path d="M 89.63071344664047 81.73862282372117 l -13.925176189602395 -24.52366354578934 a49.201429141420235,49.201429141420235 0 0,0 0.74007363090492,-0.41185017433787163 l 13.50097846962543 24.759729117687396" fill="#f2ff19" stroke="none" /><path d="M 91.56875222667455 80.76684994638697 l -11.536205696852228 -26.316101860850836 a49.733625929053275,49.733625929053275 0 0,0 0.787013889533594,-0.33695827491942465 l 11.081508049528326 26.510779663733047" fill="#eaff1a" stroke="none" /><path d="M 91.90106846888425 80.62456947434976 l -21.620909427641966 -51.72465366662274 a77.0616046988522,77.0616046988522 0 0,0 1.228274387052842,-0.5010439626120371 l 20.727351171000745 52.089158515418355" fill="#43ffdc" stroke="none" /><path d="M 92.23578459929587 80.48803036053334 l -10.357639563288984 -26.029410348031448 a49.0144766217257,49.0144766217257 0 0,0 0.786604941916731,-0.30519049682269667 l 9.908051456372577 26.203843548744693" fill="#f4ff19" stroke="none" /><path d="M 92.91201910852362 80.23233633223022 l -15.106602342020912 -42.13078997136116 a65.75726642603297,65.75726642603297 0 0,0 1.0687684949909613,-0.3728723420828428 l 14.379151842966666 42.38458316661622" fill="#32ff47" stroke="none" /><path d="M 93.25333710446033 80.11325718540243 l -9.047170156381704 -26.6678132412415 a49.1606738361897,49.1606738361897 0 0,0 0.8037001808620037,-0.26496731354403974 l 8.58678715327729 26.819594279044775" fill="#f2ff19" stroke="none" /><path d="M 93.59665428221793 80.00007090966166 l -8.550813346708349 -26.707235269833323 a49.04269645823088,49.04269645823088 0 0,0 0.806202675194716,-0.25049109557652866 l 8.089825298802904 26.850466500292377" fill="#f4ff19" stroke="none" /><path d="M 93.94186890950719 79.89281104454417 l -10.151944391176102 -33.69472550024545 a56.190858208608994,56.190858208608994 0 0,0 0.9285132129954053,-0.27105846838212094 l 9.570440960457274 33.86448229754627" fill="#91ff23" stroke="none" /><path d="M 94.28887869178378 79.79150937346287 l -10.666192831661673 -37.74174040908177 a60.219977544979635,60.219977544979635 0 0,0 0.9999444419444967,-0.27332258910356144 l 10.014950500493455 37.91974953901163" fill="#5eff29" stroke="none" /><path d="M 94.63758080256005 79.69619591428918 l -4.333886472068876 -16.409455997137997 a37.972118844587136,37.972118844587136 0 0,0 0.6333950337645573,-0.16146649723530856 l 4.05078254961932 16.481625490542168" fill="#ff5f08" stroke="none" /><path d="M 94.98787191387505 79.60689891045804 l -10.67972780193955 -43.45315301830767 a65.74631932523592,65.74631932523592 0 0,0 1.1013332289531137,-0.26064999264369254 l 9.930170886023902 43.63054892309223" fill="#32ff47" stroke="none" /><path d="M 95.33964822691252 79.52364482259891 l -7.801457420947432 -34.27754402042911 a56.154128661699346,56.154128661699346 0 0,0 0.9443447193189729,-0.20639717899386276 l 7.210269977474938 34.40675469751884" fill="#92ff23" stroke="none" /><path d="M 95.692805502759 79.44645832069477 l -5.757289458490276 -27.473263378448102 a49.07002997095694,49.07002997095694 0 0,0 0.8281936623886427,-0.1661278574337021 l 5.283529386634497 27.568295191959013" fill="#f4ff19" stroke="none" /><path d="M 96.40284397218896 79.31037775812273 l -9.55592971735804 -54.96246882078616 a76.78699464605506,76.78699464605506 0 0,0 1.3041751589817903,-0.21520007583596162 l 8.608425352237365 55.11881515956174" fill="#42ffd9" stroke="none" /><path d="M 96.75951476605007 79.25152402106235 l -5.182954839811769 -33.185898478133616 a54.588195525698005,54.588195525698005 0 0,0 0.929639620115031,-0.13700471447160953 l 4.610946239268089 33.270197676766195" fill="#a7ff21" stroke="none" /><path d="M 97.11714578562143 79.19881850522333 l -3.870282330398354 -27.925950881979464 a49.19286821129988,49.19286821129988 0 0,0 0.8397580341050005,-0.10902469404378723 l 3.389009567785496 27.988433899187388" fill="#f2ff19" stroke="none" /><path d="M 97.47563105711357 79.15227682838746 l -6.705401746878891 -55.37715070029986 a76.78163884532945,76.78163884532945 0 0,0 1.3134533920159044,-0.14758179252174192 l 5.75118165135327 55.4843684462922" fill="#42ffd9" stroke="none" /><path d="M 97.83486435360386 79.11191278185805 l -2.096146470207639 -20.222516018604452 a41.330862848076016,41.330862848076016 0 0,0 0.7082828102239157,-0.06725998726432153 l 1.7477385328934871 20.255601550383954" fill="#ff950d" stroke="none" /><path d="M 98.19473922651362 79.07773832637324 l -2.680143301610089 -31.06180575275614 a52.17721836115467,52.17721836115467 0 0,0 0.8954848280544713,-0.06950685730422183 l 2.1450682841932838 31.103337872248826" fill="#c8ff1d" stroke="none" /><path d="M 98.55514903715128 79.0497635885617 l -2.3156557205039427 -33.576843591124614 a54.65659945625447,54.65659945625447 0 0,0 0.9391512078661066,-0.056652165569180096 l 1.7373424637982133 33.6117290260741" fill="#a6ff21" stroke="none" /><path d="M 98.91598698831166 79.02799685794201 l -1.6950086847643968 -32.7927128912681 a53.83648996483284,53.83648996483284 0 0,0 0.9258829477514064,-0.03987046737669762 l 1.1302849046236663 32.81703108516899" fill="#b1ff20" stroke="none" /><path d="M 99.27714615592234 79.0124445844662 l -1.3520057570826527 -39.25454084718725 a60.277816852399994,60.277816852399994 0 0,0 1.0372760713837434,-0.026789780661344093 l 0.6761030505040302 39.27199741999095" fill="#5eff2a" stroke="none" /><path d="M 99.63851952072746 79.00311137660856 l -0.5769527390518268 -33.51277066803442 a54.51773668240992,54.51773668240992 0 0,0 0.9384332183243542,-0.008077390984058191 l 8.209477788555427e-15 33.51773668240992" fill="#a8ff21" stroke="none" /></svg>