<?xml version="1.0" encoding="utf-8" ?>
<svg baseProfile="full" height="200mm" version="1.1" viewBox="0,0,200,200" width="200mm" xmlns="http://www.w3.org/2000/svg" xmlns:ev="http://www.w3.org/2001/xml-events" xmlns:xlink="http://www.w3.org/1999/xlink"><defs /><rect fill="#1a1a1a" height="200" width="200" x="0" y="0" /><text alignment-baseline="middle" fill="#e1ed5e" style="dominant-baseline: central; font-size:9.0px; font-family:Arial;" text-anchor="middle" x="100.0" y="100.0">2017</text><line stroke="#e1ed5e" stroke-width="0.3" x1="100.0" x2="100.0" y1="15.0" y2="10.0" /><path d="M 100.0 14.0 a86.0,86.0 0 0,1 42.46469731375804,11.215312516191453" fill="none" id="id37" stroke="none" /><text fill="#e1ed5e" style="font-size:6.75px; font-family:Arial;" text-anchor="middle"><textPath startOffset="22.20632615414155" xlink:href="#id37">January</textPath></text><line stroke="#e1ed5e" stroke-width="0.3" x1="143.23703022742887" x2="145.7803849466894" y1="26.81831364943548" y2="22.513508569990506" /><path d="M 143.74570117128098 25.957352633546492 a86.0,86.0 0 0,1 28.547481713284135,27.462654790039103" fill="none" id="id38" stroke="none" /><text fill="#e1ed5e" style="font-size:6.75px; font-family:Arial;" text-anchor="middle"><textPath startOffset="19.985693538727396" xlink:href="#id38">February</textPath></text><line stroke="#e1ed5e" stroke-width="0.3" x1="172.23445277983987" x2="176.4835382374775" y1="55.19839476539836" y2="52.563006222186495" /><path d="M 173.08426987136738 54.67131705675599 a86.0,86.0 0 0,1 12.851231095245387,41.99856678651699" fill="none" id="id39" stroke="none" /><text fill="#e1ed5e" style="font-size:6.75px; font-family:Arial;" text-anchor="middle"><textPath startOffset="22.20632615414155" xlink:href="#id39">March</textPath></text><line stroke="#e1ed5e" stroke-width="0.3" x1="184.98032266829074" x2="189.97916517819016" y1="98.17113171792111" y2="98.06355123074" /><path d="M 185.9800911702706 98.14961562048488 a86.0,86.0 0 0,1 -9.607161424134198,41.387399972396054" fill="none" id="id40" stroke="none" /><text fill="#e1ed5e" style="font-size:6.75px; font-family:Arial;" text-anchor="middle"><textPath startOffset="21.466115282336823" xlink:href="#id40">April</textPath></text><line stroke="#e1ed5e" stroke-width="0.3" x1="174.80103733775053" x2="179.2010983576182" y1="140.37084112569926" y2="142.7455964860345" /><path d="M 175.68104954172406 140.8457921977663 a86.0,86.0 0 0,1 -30.038265399797805,32.042727171017184" fill="none" id="id41" stroke="none" /><text fill="#e1ed5e" style="font-size:6.75px; font-family:Arial;" text-anchor="middle"><textPath startOffset="22.206326154141568" xlink:href="#id41">May</textPath></text><line stroke="#e1ed5e" stroke-width="0.3" x1="143.8653032363475" x2="146.44561519142675" y1="172.8068346515853" y2="177.08958963109032" /><path d="M 144.38136562736335 173.6633856474863 a86.0,86.0 0 0,1 -40.68145358897372,12.25698825130547" fill="none" id="id42" stroke="none" /><text fill="#e1ed5e" style="font-size:6.75px; font-family:Arial;" text-anchor="middle"><textPath startOffset="21.466115282336833" xlink:href="#id42">June</textPath></text><line stroke="#e1ed5e" stroke-width="0.3" x1="102.19456741930631" x2="102.32365962044197" y1="184.97166512339345" y2="189.96999836594603" /><path d="M 102.22038585953345 185.97133177190398 a86.0,86.0 0 0,1 -42.740103519485714,-10.115201625700543" fill="none" id="id43" stroke="none" /><text fill="#e1ed5e" style="font-size:6.75px; font-family:Arial;" text-anchor="middle"><textPath startOffset="22.20632615414155" xlink:href="#id43">July</textPath></text><path d="M 99.81925306533755 120.99922214144158 l -0.2693730551430453 31.29582603672678 a52.29698530472069,52.29698530472069 0 0,0 -0.9001065993436588,-0.015496151394765614 l 0.808039344379372 -31.286552408052856" fill="#b9ff1f" stroke="none" /><path d="M 99.45781275523022 120.99299961872073 l -0.960694768013035 37.19723230886442 a58.20963619651386,58.20963619651386 0 0,0 -1.0014265187725475,-0.03449115413033188 l 1.6008416384602255 -37.175184356307994" fill="#6eff28" stroke="none" /><path d="M 99.09653310690486 120.98055641714683 l -1.3446205164477807 31.22514706470279 a52.25408474976622,52.25408474976622 0 0,0 -0.8983022889903979,-0.046431967566424606 l 1.8819108738516674 -31.19737529037416" fill="#b9ff1f" stroke="none" /><path d="M 98.73552117531835 120.96189622390904 l -1.8493294545164363 30.657256849794717 a51.71298450143892,51.71298450143892 0 0,0 -0.8880775220229005,-0.061247025454974936 l 2.376769737318267 -30.620881479823456" fill="#c1ff1e" stroke="none" /><path d="M 98.37488393609728 120.93702456842531 l -2.4178827528021376 31.150557011551744 a52.24425321777164,52.24425321777164 0 0,0 -0.8960030791300096,-0.07731091585167138 l 2.9537301496736887 -31.10432184342141" fill="#baff1f" stroke="none" /><path d="M 98.01472825383883 120.90594882070398 l -2.9557852120476182 31.12596272401914 a52.265991455842055,52.265991455842055 0 0,0 -0.8949117539814939,-0.09276126237357366 l 3.4911295626347054 -31.070472093189807" fill="#b9ff1f" stroke="none" /><path d="M 97.65516085044442 120.86867818915974 l -3.5204117622035276 31.331078796036913 a52.52823809696531,52.52823809696531 0 0,0 -0.8976640080203869,-0.10869461016631565 l 4.059203193275303 -31.26583865714525" fill="#b6ff1f" stroke="none" /><path d="M 97.2962882734958 120.8252237178851 l -4.0362853131042655 31.08931466717142 a52.35023262438703,52.35023262438703 0 0,0 -0.8926248355957802,-0.12370966859754365 l 4.570838739886876 -31.015230433081268" fill="#b8ff1f" stroke="none" /><path d="M 96.93821686468263 120.77559828337769 l -4.5380177556095775 30.792525050474364 a52.12512175292362,52.12512175292362 0 0,0 -0.8865344807230411,-0.13845845338648938 l 5.067388099941136 -30.70984828974077" fill="#bbff1f" stroke="none" /><path d="M 96.58105272829116 120.7198165907248 l -5.104996541102451 30.937766400550366 a52.356121882970335,52.356121882970335 0 0,0 -0.8879374599216475,-0.1543793090533799 l 5.636782972496148 -30.845308512975983" fill="#b8ff1f" stroke="none" /><path d="M 96.22490169976321 120.6578951692458 l -2.7322475848080696 14.951262111466011 a36.19886231237222,36.19886231237222 0 0,0 -0.611988973169156,-0.11728914325389787 l 2.989204172548921 -14.902015769863645" fill="#ff5908" stroke="none" /><path d="M 95.86986931433489 120.58985236759428 l -5.791409315239477 28.871789266854258 a50.44691218661616,50.44691218661616 0 0,0 -0.8499308702927011,-0.17811127759290252 l 6.287531646961565 -28.767822008534814" fill="#d2ff1c" stroke="none" /><path d="M 95.51606077576429 120.51570834832081 l -8.571968906744411 39.21998164273024 a61.14580440088715,61.14580440088715 0 0,0 -1.0263173333560927,-0.23358648366947735 l 9.245806389493367 -39.06661842548308" fill="#4bff2c" stroke="none" /><path d="M 95.16358092515715 120.4354850818985 l -8.123058245039093 34.322632720011505 a56.27076965541158,56.27076965541158 0 0,0 -0.9406508977382694,-0.2311891047414275 l 8.712662427520574 -34.17772235695605" fill="#86ff25" stroke="none" /><path d="M 94.46302465271185 120.25689768951611 l -2.5914879045184636 9.48089923701029 a30.82869573756395,30.82869573756395 0 0,0 -0.5106829702421257,-0.14432410846473787 l 2.754302042865203 -9.43488633520703" fill="#ff0000" stroke="none" /><path d="M 94.11515582081647 120.15858648285463 l -9.029661069943502 30.931184929789584 a53.22224356246622,53.22224356246622 0 0,0 -0.8772166863526706,-0.26429819167985535 l 9.560752730736418 -30.771171369004005" fill="#adff20" stroke="none" /><path d="M 93.76903079525671 120.05430185196036 l -3.781789431558033 12.171645262391078 a33.74562198161122,33.74562198161122 0 0,0 -0.5532332068999384,-0.1771278023205065 l 3.990743983548912 -12.104744613410864" fill="#ff3104" stroke="none" /><path d="M 93.42475214034765 119.94407469862007 l -10.186728664404106 30.8984363409521 a53.53433277628514,53.53433277628514 0 0,0 -0.8726867826825294,-0.29606273843046044 l 10.71708518002386 -30.718510615623515" fill="#a9ff21" stroke="none" /><path d="M 92.7421414339146 119.70592522655815 l -21.773575698256195 59.117775679674445 a84.0,84.0 0 0,0 -1.3525191169588682,-0.5114069995734671 l 22.787965035975347 -58.734220429994345" fill="#4dd2ff" stroke="none" /><path d="M 92.40401165467489 119.57807347666478 l -11.314774409949505 29.1629574321571 a52.28101990245611,52.28101990245611 0 0,0 -0.8361948908700552,-0.33273920417297603 l 11.815090376861418 -28.963871383578056" fill="#b9ff1f" stroke="none" /><path d="M 92.06813273071674 119.44442032107085 l -12.537440908947946 30.734663416298094 a54.19347767044746,54.19347767044746 0 0,0 -0.860717691056248,-0.35978006466778456 l 13.064630059501656 -30.514298308610336" fill="#a0ff22" stroke="none" /><path d="M 91.7346041902142 119.30500536409082 l -14.71682493750172 34.37323401070362 a58.39123095855049,58.39123095855049 0 0,0 -0.9205775881743232,-0.40355416137409694 l 15.306323200333786 -34.11481529603507" fill="#6bff28" stroke="none" /><path d="M 91.40352486487194 119.15986991738527 l -16.258831249303604 36.237770347571114 a60.71807640554406,60.71807640554406 0 0,0 -0.9498967302219214,-0.43605099935236263 l 16.880195975292946 -35.95253227788468" fill="#50ff2b" stroke="none" /><path d="M 91.07499286063937 119.00905698771935 l -15.828647438832235 33.71287624816788 a58.24384653425492,58.24384653425492 0 0,0 -0.9038538929738897,-0.43390479573809365 l 16.406613999806368 -33.435417175930226" fill="#6dff28" stroke="none" /><path d="M 90.7491055286396 118.85261126421891 l -11.169925930617216 22.763449747695354 a46.35629881728259,46.35629881728259 0 0,0 -0.7133265150997686,-0.35767672308656495 l 11.560106353399746 -22.567805183699488" fill="#fff316" stroke="none" /><line stroke="#e1ed5e" stroke-width="0.3" x1="58.666819895761336" x2="56.23545636021788" y1="174.27360380694188" y2="178.64263932499728" /><path d="M 58.180547188652646 175.14741091055294 a86.0,86.0 0 0,1 -31.652253787137756,-30.449443065178592" fill="none" id="id44" stroke="none" /><text fill="#e1ed5e" style="font-size:6.75px; font-family:Arial;" text-anchor="middle"><textPath startOffset="22.20632615414155" xlink:href="#id44">August</textPath></text><line stroke="#e1ed5e" stroke-width="0.3" x1="26.63291911575756" x2="22.317208475507996" y1="142.92168965132927" y2="145.44649492493687" /><path d="M 25.769776987707644 143.4266507060508 a86.0,86.0 0 0,1 -11.730757126820373,-40.83630448921669" fill="none" id="id45" stroke="none" /><text fill="#e1ed5e" style="font-size:6.75px; font-family:Arial;" text-anchor="middle"><textPath startOffset="21.46611528233685" xlink:href="#id45">September</textPath></text><line stroke="#e1ed5e" stroke-width="0.3" x1="15.007084014347285" x2="10.007500721073583" y1="101.09737516637583" y2="101.16192664675087" /><path d="M 14.007167355692545 101.11028546245083 a86.0,86.0 0 0,1 10.666146001902534,-42.60595125391555" fill="none" id="id46" stroke="none" /><text fill="#e1ed5e" style="font-size:6.75px; font-family:Arial;" text-anchor="middle"><textPath startOffset="22.20632615414155" xlink:href="#id46">October</textPath></text><line stroke="#e1ed5e" stroke-width="0.3" x1="26.266209847984243" x2="21.928928074336255" y1="57.711370442889674" y2="55.22380399835377" /><path d="M 25.398753493254645 57.213857153982495 a86.0,86.0 0 0,1 29.58750427330803,-30.492523968695096" fill="none" id="id47" stroke="none" /><text fill="#e1ed5e" style="font-size:6.75px; font-family:Arial;" text-anchor="middle"><textPath startOffset="21.46611528233685" xlink:href="#id47">November</textPath></text><line stroke="#e1ed5e" stroke-width="0.3" x1="56.762969772571076" x2="54.21961505331055" y1="26.818313649435495" y2="22.513508569990535" /><path d="M 56.25429882871897 25.957352633546506 a86.0,86.0 0 0,1 42.265352541879196,-11.944610805530505" fill="none" id="id48" stroke="none" /><text fill="#e1ed5e" style="font-size:6.75px; font-family:Arial;" text-anchor="middle"><textPath startOffset="22.20632615414155" xlink:href="#id48">December</textPath></text></svg>