<?xml version="1.0" encoding="utf-8" ?>
<svg baseProfile="full" height="200mm" version="1.1" viewBox="0,0,200,200" width="200mm" xmlns="http://www.w3.org/2000/svg" xmlns:ev="http://www.w3.org/2001/xml-events" xmlns:xlink="http://www.w3.org/1999/xlink"><defs /><rect fill="#1a1a1a" height="200" width="200" x="0" y="0" /><text alignment-baseline="middle" fill="#e1ed5e" style="dominant-baseline: central; font-size:9.0px; font-family:Arial;" text-anchor="middle" x="100.0" y="100.0">2014</text><line stroke="#e1ed5e" stroke-width="0.3" x1="100.0" x2="100.0" y1="15.0" y2="10.0" /><path d="M 100.0 14.0 a86.0,86.0 0 0,1 42.46469731375804,11.215312516191453" fill="none" id="id1" stroke="none" /><text fill="#e1ed5e" style="font-size:6.75px; font-family:Arial;" text-anchor="middle"><textPath startOffset="22.20632615414155" xlink:href="#id1">January</textPath></text><line stroke="#e1ed5e" stroke-width="0.3" x1="143.23703022742887" x2="145.7803849466894" y1="26.81831364943548" y2="22.513508569990506" /><path d="M 143.74570117128098 25.957352633546492 a86.0,86.0 0 0,1 28.547481713284135,27.462654790039103" fill="none" id="id2" stroke="none" /><text fill="#e1ed5e" style="font-size:6.75px; font-family:Arial;" text-anchor="middle"><textPath startOffset="19.985693538727396" xlink:href="#id2">February</textPath></text><line stroke="#e1ed5e" stroke-width="0.3" x1="172.23445277983987" x2="176.4835382374775" y1="55.19839476539836" y2="52.563006222186495" /><path d="M 173.08426987136738 54.67131705675599 a86.0,86.0 0 0,1 12.851231095245387,41.99856678651699" fill="none" id="id3" stroke="none" /><text fill="#e1ed5e" style="font-size:6.75px; font-family:Arial;" text-anchor="middle"><textPath startOffset="22.20632615414155" xlink:href="#id3">March</textPath></text><path d="M 117.84615892207809 88.93136811851018 l 13.715763468827385 -8.50685783270825 a37.139665353368684,37.139665353368684 0 0,0 0.33228363699211727,0.5461869311154599 l -13.860162904105726 8.269503128385708" fill="#ff6c09" stroke="none" /><path d="M 118.03404312379186 89.2402003453031 l 19.214243464570036 -11.463952302664401 a43.37430120279819,43.37430120279819 0 0,0 0.3770266219609932,0.6444607119064875 l -19.408729761001354 11.131512178404018" fill="#ffcb12" stroke="none" /><path d="M 118.21658344932153 89.55222093294921 l 26.08184478977825 -14.95875188576385 a51.067039854597034,51.067039854597034 0 0,0 0.4307683758122213,0.7662888741428862 l -26.335470806882903 14.50757950168617" fill="#c7ff1e" stroke="none" /><path d="M 118.89224826269711 90.83032412892265 l 30.667865111388604 -14.885172946018006 a55.08938726529406,55.08938726529406 0 0,0 0.406721814369626,0.8566598680570098 l -30.919545119599984 14.355070662320456" fill="#93ff23" stroke="none" /><path d="M 119.196687751892 91.48605970444005 l 15.902763404787521 -7.053048938061313 a38.39664862067798,38.39664862067798 0 0,0 0.2627597675094116,0.6064857710707868 l -16.021813882139615 6.778264022403923" fill="#ff800b" stroke="none" /><path d="M 119.34039704204932 91.81776055985345 l 34.544141855453304 -14.61440731031432 a58.50838089762672,58.50838089762672 0 0,0 0.38442322377496985,0.9309113285476801 l -34.790586766114465 14.017621411313337" fill="#68ff28" stroke="none" /><path d="M 119.47837535516314 92.15188598940014 l 14.177397025505183 -5.712274571205994 a36.284916329363725,36.284916329363725 0 0,0 0.22843333241641423,0.5813379145851251 l -14.273623907803298 5.467387651725085" fill="#ff5e08" stroke="none" /><path d="M 119.85752413597 93.16781622104841 l 9.794054128518345 -3.369744248520244 a31.35754182095262,31.35754182095262 0 0,0 0.17121621932644404,0.5119147029743313 l -9.850607641616559 3.2006564426235986" fill="#ff0e01" stroke="none" /><path d="M 120.18372546131832 94.20196356495316 l 14.690788328147557 -4.220119132585398 a36.284916329363725,36.284916329363725 0 0,0 0.1672790442654766,0.6017917244717371 l -14.761254142979396 3.9666161046947095" fill="#ff5e08" stroke="none" /><path d="M 120.37134235888165 94.90015583598534 l 16.095474113567835 -4.029406029266402 a37.592178877086056,37.592178877086056 0 0,0 0.15174208264309325,0.629068896738541 l -16.16244899647175 3.7517519008684546" fill="#ff730a" stroke="none" /><path d="M 120.53481517161879 95.60439243477599 l 24.681111086703122 -5.283148531124291 a46.24022390701201,46.24022390701201 0 0,0 0.15990464843692404,0.7797518547584545 l -24.768395031055043 4.857521020202424" fill="#fff417" stroke="none" /><path d="M 120.6074358757038 95.95851677861258 l 17.860874032891093 -3.502833790609988 a39.201117157565974,39.201117157565974 0 0,0 0.12416352046001407,0.6632864911448408 l -17.918523277260967 3.1948692220025845" fill="#ff8c0c" stroke="none" /><path d="M 120.67395015179393 96.31383870115 l 30.392191695059495 -5.4189218795149925 a51.871508391485015,51.871508391485015 0 0,0 0.14916303961428146,0.8803687034390254 l -30.480966596194 4.894967387760129" fill="#bcff1f" stroke="none" /><path d="M 120.73433829027371 96.67025291283417 l 25.069851850365488 -4.02599132925266 a46.39106295495507,46.39106295495507 0 0,0 0.11983056011393953,0.7895336703417017 l -25.13543830391873 3.593858546518876" fill="#fff717" stroke="none" /><path d="M 120.78858239683441 97.02765380044208 l 26.130900223901445 -3.7361894374946747 a47.39664861349522,47.39664861349522 0 0,0 0.10852478555174816,0.8086357069438855 l -26.191341008511028 3.2858353884861247" fill="#f9ff18" stroke="none" /><path d="M 120.91429891909075 98.10471618934814 l 25.537811179809097 -2.3142731332196433 a46.64245815031634,46.64245815031634 0 0,0 0.06557822156265257,0.8002204066084787 l -25.573863885191244 1.8743388094033957" fill="#fffa17" stroke="none" /><path d="M 120.98425023603335 99.18683210126433 l 31.551739520025198 -1.222672310821811 a52.57542073067547,52.57542073067547 0 0,0 0.027259868811362248,0.9046223343658863 l -31.568111083292205 0.6793798290309254" fill="#b3ff20" stroke="none" /><line stroke="#e1ed5e" stroke-width="0.3" x1="184.98032266829074" x2="189.97916517819016" y1="98.17113171792111" y2="98.06355123074" /><path d="M 185.9800911702706 98.14961562048488 a86.0,86.0 0 0,1 -9.607161424134198,41.387399972396054" fill="none" id="id4" stroke="none" /><text fill="#e1ed5e" style="font-size:6.75px; font-family:Arial;" text-anchor="middle"><textPath startOffset="21.466115282336823" xlink:href="#id4">April</textPath></text><path d="M 120.99513854157772 99.54816195383933 l 31.216236390853403 -0.671807105792635 a52.22346456108024,52.22346456108024 0 0,0 0.011606025590228363,0.8988994722521371 l -31.223175423561347 0.1343713754800352" fill="#b8ff1f" stroke="none" /><path d="M 120.99980553446 99.90962569577887 l 15.284774787006203 -0.06577922277830647 a36.284916329363725,36.284916329363725 0 0,0 -0.0026880258420832154,0.6246025398684445 l -15.283642463874617 -0.19733279529382272" fill="#ff5e08" stroke="none" /><path d="M 120.99824983174949 100.27111621757518 l 50.97899401950222 0.6582087624015995 a71.9832430315623,71.9832430315623 0 0,0 -0.026661007239493592,1.2388322440029458 l -50.96011094957772 -1.5356308221946602" fill="#3cffa2" stroke="none" /><path d="M 120.9904718944345 100.63252640178507 l 50.608314469293845 1.5250297950737017 a71.63128686196707,71.63128686196707 0 0,0 -0.047746916056722336,1.2321357447718664 l -50.574565420385916 -2.3959427868595746" fill="#3bff9d" stroke="none" /><path d="M 120.95626037817324 101.35467743843564 l 50.97739989308069 3.295336680259728 a72.08379922925984,72.08379922925984 0 0,0 -0.09070009715171468,1.2375307640724562 l -50.913123237264635 -4.172340580828954" fill="#3cffa3" stroke="none" /><path d="M 120.92983693683757 101.71520430193887 l 30.21714058514101 2.476300684058584 a51.318437463366166,51.318437463366166 0 0,0 -0.07972784479390395,0.8797901236865764 l -30.170038144070034 -2.9960721962937313" fill="#c4ff1e" stroke="none" /><path d="M 120.89721153311464 102.0752229133903 l 15.160068240102273 1.5054889467222485 a36.234637048950674,36.234637048950674 0 0,0 -0.0669783436278563,0.6201362776458323 l -15.131907594973365 -1.7662215462528723" fill="#ff5e08" stroke="none" /><path d="M 120.8583938346157 102.4346265915055 l 62.575181503847105 7.303879774516526 a84.0,84.0 0 0,0 -0.1799939630126075,1.4347289828504204 l -62.44018603158764 -8.379926511654341" fill="#4dd2ff" stroke="none" /><path d="M 120.70491114924044 103.5080841355445 l 30.09069838081897 5.098341203027964 a51.51955458501834,51.51955458501834 0 0,0 -0.15567138226284646,0.8730877832087846 l -29.998480556216936 -5.615547736969966" fill="#c1ff1e" stroke="none" /><path d="M 120.64145759157962 103.86396538481128 l 31.184580759216026 5.837579059466092 a52.72625736521066,52.72625736521066 0 0,0 -0.1746747266114328,0.8906626677805307 l -31.07947609962893 -6.373505454314568" fill="#b1ff20" stroke="none" /><path d="M 120.5718875245553 104.21870165774334 l 23.592819443678714 4.8382077910489745 a45.083799200528794,45.083799200528794 0 0,0 -0.1624432859267712,0.758880951695395 l -23.5060421190275 -5.243602562160539" fill="#ffe415" stroke="none" /><path d="M 120.49622156327973 104.57218783832717 l 20.070922045003268 4.4773142891168165 a41.56424700737004,41.56424700737004 0 0,0 -0.16178276323357813,0.6969559097619574 l -19.990878715839138 -4.822138856227339" fill="#ffb010" stroke="none" /><path d="M 120.32669344350535 105.2749913415812 l 50.51662044517582 13.109595822599905 a73.18994581175463,73.18994581175463 0 0,0 -0.3269566480496089,1.2167273182511356 l -50.28347572078443 -13.977214074026588" fill="#3dffb1" stroke="none" /><path d="M 120.23288151984713 105.62410040840565 l 32.505021244918126 9.035366666851312 a54.73743109569883,54.73743109569883 0 0,0 -0.2601523172043108,0.9056243449658856 l -32.344676290827714 -9.59354848732178" fill="#97ff23" stroke="none" /><path d="M 120.13307415673323 105.97154293290107 l 19.37788334830381 5.747550595716924 a41.21229083777482,41.21229083777482 0 0,0 -0.20757890544416094,0.6783798734266067 l -19.276077670353516 -6.080257441695588" fill="#ffab0f" stroke="none" /><path d="M 119.9155931802556 106.66101706037122 l 24.175274457778478 8.0857202768164 a46.49162151578115,46.49162151578115 0 0,0 -0.26037337974156355,0.7567669196064187 l -24.032510247093686 -8.500659899512119" fill="#fff817" stroke="none" /><path d="M 119.79798401119884 107.00284435728193 l 32.6595634962768 11.552178232481738 a55.64245819341291,55.64245819341291 0 0,0 -0.3271663640436874,0.9002213214860135 l -32.45587287122789 -12.112647350973884" fill="#8cff24" stroke="none" /><path d="M 119.67450827220406 107.3425965602758 l 33.35088268032487 12.446668199412217 a56.59776572796463,56.59776572796463 0 0,0 -0.34849594623106667,0.9098129466504588 l -33.131692454500296 -13.01890471289582" fill="#80ff26" stroke="none" /><path d="M 119.41010516605496 108.01547362559984 l 29.324285332574505 12.109570435706596 a52.72625736521066,52.72625736521066 0 0,0 -0.3536400769186531,0.8359006782457475 l -29.111494274463546 -12.612545639618508" fill="#b1ff20" stroke="none" /><path d="M 119.26925614724726 108.34839909993367 l 18.823279784514817 8.155179982559533 a41.51396652025307,41.51396652025307 0 0,0 -0.28972580484335925,0.6532552045430713 l -18.680112894940187 -8.477983523595292" fill="#ffaf10" stroke="none" /><path d="M 119.12269723197855 108.67885076344098 l 14.284791990241253 6.483163769532407 a36.68715062294738,36.68715062294738 0 0,0 -0.2659388362206183,0.5728085941896854 l -14.171078537180803 -6.728092431000923" fill="#ff6509" stroke="none" /><path d="M 118.97047184881838 109.00673069616215 l 25.526109816669734 12.11919232539942 a49.256983296040346,49.256983296040346 0 0,0 -0.37024068582206593,0.7628054744622033 l -25.313715874232955 -12.556786755826897" fill="#dfff1b" stroke="none" /><line stroke="#e1ed5e" stroke-width="0.3" x1="174.80103733775053" x2="179.2010983576182" y1="140.37084112569926" y2="142.7455964860345" /><path d="M 175.68104954172406 140.8457921977663 a86.0,86.0 0 0,1 -30.038265399797805,32.042727171017184" fill="none" id="id5" stroke="none" /><text fill="#e1ed5e" style="font-size:6.75px; font-family:Arial;" text-anchor="middle"><textPath startOffset="22.206326154141568" xlink:href="#id5">May</textPath></text><path d="M 118.48025628344425 109.97397251340804 l 22.344445272220806 12.059512571377867 a46.39106295495507,46.39106295495507 0 0,0 -0.38531884618877743,0.6994656292572482 l -22.133550016580518 -12.44234871903292" fill="#fff717" stroke="none" /><path d="M 117.94076556474637 110.91462005526583 l 30.540825597682485 18.58011612547113 a56.74860477590769,56.74860477590769 0 0,0 -0.5148864694913301,0.8301609322410001 l -30.21647448852319 -19.1030733890774" fill="#7eff26" stroke="none" /><path d="M 117.75023020441432 111.22182372390056 l 29.19650810362814 18.458243274550217 a55.541899632586826,55.541899632586826 0 0,0 -0.5178492298504999,0.8037135046511298 l -28.87445401040059 -18.9580783791228" fill="#8dff24" stroke="none" /><path d="M 117.55443506779139 111.5257021239791 l 26.520786898172787 17.41273294762457 a52.72625736521066,52.72625736521066 0 0,0 -0.504657809224878,0.754394951920476 l -26.217125983537187 -17.86666481375085" fill="#b1ff20" stroke="none" /><path d="M 117.35343817320211 111.8261652097733 l 21.729884425045178 14.80866215875911 a47.29609005266914,47.29609005266914 0 0,0 -0.46426538563024433,0.6688089145490328 l -21.4717581322528 -15.180512335495164" fill="#fbff18" stroke="none" /><path d="M 117.14729908036423 112.12312394758627 l 24.92037763184815 17.618683002823918 a51.51955458501834,51.51955458501834 0 0,0 -0.5181890960078114,0.7197193322557368 l -24.613408743464735 -18.045035940530784" fill="#c1ff1e" stroke="none" /><path d="M 116.93607887273984 112.41649034213515 l 25.140547818622828 18.431501856569806 a52.17318407396327,52.17318407396327 0 0,0 -0.5372315826970293,0.7197094981531851 l -24.81955496923071 -18.861524234232306" fill="#b8ff1f" stroke="none" /><path d="M 116.71984013943494 112.70617746262583 l 24.25911390864458 18.435619230729667 a51.469274097901355,51.469274097901355 0 0,0 -0.5421263120566872,0.7007713376955601 l -23.938180779369823 -18.85046856253848" fill="#c2ff1e" stroke="none" /><path d="M 116.0416608686014 113.55231037782055 l 23.198315983847035 19.598393273056452 a51.368715537075275,51.368715537075275 0 0,0 -0.5764486947637955,0.6705400626366363 l -22.85752477951246 -19.994810434854617" fill="#c3ff1e" stroke="none" /><path d="M 115.80600337817218 113.82643327865902 l 15.326652369705508 13.40711698616885 a41.36312988571788,41.36312988571788 0 0,0 -0.4733934389942206,0.5318625471193976 l -15.093600081062949 -13.668953703029114" fill="#ffad10" stroke="none" /><path d="M 115.56566222782051 114.09645910891815 l 18.857681955951342 17.077753499362203 a46.44134102866417,46.44134102866417 0 0,0 -0.5417130144031876,0.587922487514936 l -18.560922533552432 -17.399827241678473" fill="#fff717" stroke="none" /><path d="M 115.07121518719521 114.62390073753431 l 14.686316766742111 14.250426122194606 a41.46368844654396,41.46368844654396 0 0,0 -0.5014329714655388,0.5079489527379772 l -14.438843170221038 -14.501115568913248" fill="#ffaf10" stroke="none" /><path d="M 114.55890576462653 115.13401014063108 l 15.999691362164361 16.63170950046838 a44.078212335284704,44.078212335284704 0 0,0 -0.5513222316472556,0.5213095818211139 l -15.711033296126299 -16.904653719035416" fill="#ffd513" stroke="none" /><path d="M 114.29624159901734 115.38237550388516 l 18.860086878562388 20.2929515700046 a48.70391236792149,48.70391236792149 0 0,0 -0.6190045787487916,0.5654460062301163 l -18.507982750346734 -20.614590342821298" fill="#e7ff1a" stroke="none" /><path d="M 114.0293411484842 115.62618273729858 l 16.96285163417638 18.89358998230382 a46.39106295495507,46.39106295495507 0 0,0 -0.5987929700348802,0.5283651755909577 l -16.635116311234913 -19.182778299667067" fill="#fff717" stroke="none" /><path d="M 113.75828350139079 115.86535959552629 l 23.157399358702968 26.703946614117434 a56.34637053260335,56.34637053260335 0 0,0 -0.7382300858619492,0.6291356947312358 l -22.69430379626397 -27.098606699071617" fill="#83ff25" stroke="none" /><path d="M 113.48314897796784 116.09983520530334 l 18.239376228741513 21.779107537126993 a49.407822343983405,49.407822343983405 0 0,0 -0.6567237666553727,0.5404389504309692 l -17.86178233354145 -22.08984160641514" fill="#ddff1b" stroke="none" /><path d="M 113.20401910651253 116.32954008644616 l 9.642200753980925 11.924604354444895 a36.33519560977676,36.33519560977676 0 0,0 -0.48973356514270056,0.38907396288707763 l -9.435509696120873 -12.088812231337098" fill="#ff5f08" stroke="none" /><path d="M 112.63410532772338 116.77436683061366 l 17.363071804779988 23.053040021801678 a49.86033466099684,49.86033466099684 0 0,0 -0.6900077444021848,0.5104512335533324 l -16.96367908995924 -23.34850120409478" fill="#d7ff1c" stroke="none" /><path d="M 112.34349029814194 116.9893568818739 l 16.75680586258337 23.063764634105112 a49.508380904809485,49.508380904809485 0 0,0 -0.6937601687015973,0.49497945989365877 l -16.35731836603289 -23.348788355842988" fill="#dcff1b" stroke="none" /><path d="M 112.04921762599082 117.19931262002967 l 18.405589330184778 26.272534422723496 a53.078213534805876,53.078213534805876 0 0,0 -0.7528085941837345,0.5177886155548242 l -17.95062385137816 -26.585463827643416" fill="#acff20" stroke="none" /><path d="M 111.45004920935366 117.60387380957326 l 14.282863078417941 21.959182417005124 a47.195531491843056,47.195531491843056 0 0,0 -0.6848255860777028,0.437088090435953 l -13.902755690293308 -22.201784936264886" fill="#fcff18" stroke="none" /><line stroke="#e1ed5e" stroke-width="0.3" x1="143.8653032363475" x2="146.44561519142675" y1="172.8068346515853" y2="177.08958963109032" /><path d="M 144.38136562736335 173.6633856474863 a86.0,86.0 0 0,1 -40.68145358897372,12.25698825130547" fill="none" id="id6" stroke="none" /><text fill="#e1ed5e" style="font-size:6.75px; font-family:Arial;" text-anchor="middle"><textPath startOffset="21.466115282336833" xlink:href="#id6">June</textPath></text><path d="M 110.8373102113329 117.98757091392108 l 10.61243448006398 17.614326254117042 a41.56424700737004,41.56424700737004 0 0,0 -0.6160061469145703,0.36394728958335487 l -10.307660462121028 -17.794392115994146" fill="#ffb010" stroke="none" /><path d="M 110.21172684928248 118.3499491758327 l 15.427613055408 27.722629056714446 a52.72625736521066,52.72625736521066 0 0,0 -0.7968624430124052,0.43451293975095034 l -14.948127800526947 -27.984082648225165" fill="#b1ff20" stroke="none" /><path d="M 109.89434966115114 118.52300852407294 l 12.05799896519513 22.57353189088596 a46.592180076607235,46.592180076607235 0 0,0 -0.7106618642695741,0.37178469943187925 l -11.66764619839906 -22.777746009262554" fill="#fff917" stroke="none" /><path d="M 109.57404056367764 118.69057910512821 l 18.498604799473352 36.113241221348005 a61.57541831008483,61.57541831008483 0 0,0 -0.9475169433192053,0.47510466550933034 l -17.874233948471385 -36.42631372776663" fill="#44ff2d" stroke="none" /><path d="M 109.2508944713604 118.85261126421891 l 4.784181960405905 9.749794789687801 a31.860335882066295,31.860335882066295 0 0,0 -0.4944228503439541,0.23735301419223281 l -4.615646442061719 -9.830702080379593" fill="#ff1602" stroke="none" /><path d="M 108.92500713936063 119.00905698771935 l 10.91942265565805 23.256892044264227 a46.69273863743332,46.69273863743332 0 0,0 -0.7304790003649534,0.33532708133508 l -10.517475659525678 -23.441406195933382" fill="#fffb17" stroke="none" /><path d="M 107.93186726928326 119.44442032107085 l 19.35173097164348 47.43942103142659 a72.2346382772029,72.2346382772029 0 0,0 -1.1553377417643778,0.4597327309016348 l -18.532272153837237 -47.76550060673429" fill="#3cffa5" stroke="none" /><path d="M 107.59598834532513 119.57807347666477 l 10.966595124771342 28.265552207402326 a51.318437463366166,51.318437463366166 0 0,0 -0.8262996157340784,0.3124358110230855 l -10.478425288276988 -28.45013626853204" fill="#c4ff1e" stroke="none" /><path d="M 107.2578585660854 119.70592522655815 l 7.072502689783429 19.20266258986558 a41.46368844654396,41.46368844654396 0 0,0 -0.671870577261989,0.24090888499599164 l -6.740912551891705 -19.32155901590153" fill="#ffaf10" stroke="none" /><path d="M 106.91757812671514 119.82793768551818 l 10.053400154019599 28.816182214357834 a51.51955458501834,51.51955458501834 0 0,0 -0.8398429942878305,0.28492034218300666 l -9.555887426794541 -28.984965543438964" fill="#c1ff1e" stroke="none" /><path d="M 106.2309692047433 120.05430185196036 l 10.502639400812047 33.802622652322 a56.39664860631246,56.39664860631246 0 0,0 -0.9295376876354464,0.28006208017063766 l -9.919226738736356 -33.97840010159836" fill="#82ff25" stroke="none" /><path d="M 105.88484417918355 120.15858648285463 l 9.905137280193136 33.93013653507187 a56.34637053260335,56.34637053260335 0 0,0 -0.9333879094629425,0.2637847465740547 l -9.319618202625588 -34.095610074984435" fill="#83ff25" stroke="none" /><path d="M 104.83641907484287 120.43548508189849 l 7.248839227443319 30.62876553936993 a52.47486216984939,52.47486216984939 0 0,0 -0.8807776942027936,0.200462135634577 l -6.720541383847663 -30.74900440858219" fill="#b4ff20" stroke="none" /><path d="M 104.48393922423573 120.51570834832081 l 7.794110255561211 35.66098576302731 a57.502795239086566,57.502795239086566 0 0,0 -0.9688085689174731,0.20302325516593286 l -7.179110225214361 -35.78986499891978" fill="#75ff27" stroke="none" /><path d="M 104.13013068566511 120.58985236759428 l 1.8788304204124087 9.366493199429321 a30.553072730991993,30.553072730991993 0 0,0 -0.5165395378022999,0.09899603179427216 l -1.7173232680384045 -9.397446429572062" fill="#ff0000" stroke="none" /><path d="M 103.7750983002368 120.6578951692458 l 2.783871359920974 15.233755029453333 a36.486033451015885,36.486033451015885 0 0,0 -0.6187875400230713,0.10758414549604867 l -2.5212348484258524 -15.279417753470387" fill="#ff6209" stroke="none" /><path d="M 103.41894727170886 120.7198165907248 l 4.068356166456384 24.65542370081299 a45.98882629824287,45.98882629824287 0 0,0 -0.7821694965938014,0.12215878923980587 l -3.643350806254066 -24.7218007973999" fill="#fff116" stroke="none" /><path d="M 103.06178313531738 120.77559828337769 l 2.998250698936497 20.34450165834628 a41.56424700737004,41.56424700737004 0 0,0 -0.7087127848660741,0.09822113417683483 l -2.647609322883593 -20.39309735801572" fill="#ffb010" stroke="none" /><path d="M 102.70371172650421 120.8252237178851 l 3.773975935087094 29.068887923093083 a50.31284939141815,50.31284939141815 0 0,0 -0.8598048530821916,0.10411039374405358 l -3.2730436589535223 -29.129543845562488" fill="#d1ff1c" stroke="none" /><path d="M 100.90346689309514 120.98055641714683 l 1.1053589881841621 25.668950118746572 a46.69273863743332,46.69273863743332 0 0,0 -0.803292199727585,0.027667007566823897 l -0.6633464367819248 -25.68417392473949" fill="#fffb17" stroke="none" /><line stroke="#e1ed5e" stroke-width="0.3" x1="102.19456741930631" x2="102.32365962044197" y1="184.97166512339345" y2="189.96999836594603" /><path d="M 102.22038585953345 185.97133177190398 a86.0,86.0 0 0,1 -42.740103519485714,-10.115201625700543" fill="none" id="id7" stroke="none" /><text fill="#e1ed5e" style="font-size:6.75px; font-family:Arial;" text-anchor="middle"><textPath startOffset="22.20632615414155" xlink:href="#id7">July</textPath></text><path d="M 100.54218724476979 120.99299961872073 l 0.8035448882622436 31.112531133181758 a52.12290600025416,52.12290600025416 0 0,0 -0.8971104432584373,0.015444569850609848 l -0.2678747551111384 -31.12175318031153" fill="#b9ff1f" stroke="none" /><path d="M 100.18074693466247 120.99922214144158 l 0.09217661588406313 10.709101301277919 a31.709497990547842,31.709497990547842 0 0,0 -0.5458471010930298,0.0 l 0.09217661588405576 -10.709101301277919" fill="#ff1302" stroke="none" /><path d="M 99.81925306533755 120.99922214144158 l -0.19300830483523 22.423751063592 a43.42458168991517,43.42458168991517 0 0,0 -0.7473997272516244,-0.012867164105165932 l 0.5789677219795223 -22.417106422207677" fill="#ffcc13" stroke="none" /><path d="M 99.45781275523022 120.99299961872073 l -0.6983960493274521 27.041263214284402 a48.05028046556869,48.05028046556869 0 0,0 -0.8266470680254965,-0.028471396453133305 l 1.1637634690275918 -27.025235019405176" fill="#f0ff19" stroke="none" /><path d="M 98.73552117531835 120.96189622390904 l -1.5258515634021539 25.294802491594076 a46.340782467838096,46.340782467838096 0 0,0 -0.7958196120259663,-0.05488437982789723 l 1.9610339362070504 -25.264789767249894" fill="#fff617" stroke="none" /><path d="M 98.37488393609728 120.93702456842531 l -2.0077251779726777 25.86633183411592 a46.94413388307392,46.94413388307392 0 0,0 -0.8051045984138522,-0.06946781245462162 l 2.4526740941280716 -25.827939769382635" fill="#fffe18" stroke="none" /><path d="M 97.65516085044442 120.86867818915974 l -3.609892017057468 32.12743817240813 a53.32960878044648,53.32960878044648 0 0,0 -0.9113587681285753,-0.11035285489706233 l 4.162378208237433 -32.06053978878572" fill="#a9ff21" stroke="none" /><path d="M 97.2962882734958 120.8252237178851 l -4.065277871372899 31.31262860488873 a52.57542073067547,52.57542073067547 0 0,0 -0.8964645223799074,-0.12424181419851799 l 4.603670984939638 -31.238012225197604" fill="#b3ff20" stroke="none" /><path d="M 96.93821686468263 120.77559828337769 l -5.23410973484534 35.51582735169515 a56.8994414607222,56.8994414607222 0 0,0 -0.9677352319274561,-0.15114034074682633 l 5.844680830381313 -35.42046870360122" fill="#7cff26" stroke="none" /><path d="M 96.58105272829116 120.7198165907248 l -2.521234848425842 15.279417753470389 a36.486033451015885,36.486033451015885 0 0,0 -0.6187875400230713,-0.10758414549604867 l 2.7838713599209632 -15.233755029453334" fill="#ff6209" stroke="none" /><path d="M 96.22490169976321 120.6578951692458 l -6.4896741591390645 35.51245498790032 a57.10055858237437,57.10055858237437 0 0,0 -0.9653594058470973,-0.18501342770534165 l 7.100001179557856 -35.395484361846506" fill="#7aff26" stroke="none" /><path d="M 95.86986931433489 120.58985236759428 l -4.044429885368368 20.16260999678531 a41.56424700737004,41.56424700737004 0 0,0 -0.70027549954598,-0.14674953958101178 l 4.390896846343734 -20.09000447647776" fill="#ffb010" stroke="none" /><path d="M 95.51606077576429 120.51570834832081 l -5.002830781149796 22.889832374917077 a44.43016734845532,44.43016734845532 0 0,0 -0.7457494642587449,-0.1697301501134807 l 5.396100394801403 -22.80032549122591" fill="#ffda14" stroke="none" /><path d="M 95.16358092515715 120.4354850818985 l -6.913029884278493 29.209858964813126 a51.01675936748005,51.01675936748005 0 0,0 -0.8528221809047578,-0.20960294300581447 l 7.4148053499264615 -29.086534763493283" fill="#c8ff1d" stroke="none" /><path d="M 94.81253420990036 120.34920634021253 l -6.706859470607021 26.309429841959375 a48.1508390766741,48.1508390766741 0 0,0 -0.8013894497116002,-0.21165423738419817 l 7.15873936313011 -26.190084255271593" fill="#efff19" stroke="none" /><path d="M 94.46302465271185 120.25689768951611 l -8.020439575009943 29.342594775231426 a51.41899602419225,51.41899602419225 0 0,0 -0.8517650516271077,-0.24071731164095775 l 8.524335794741665 -29.200188670251947" fill="#c2ff1e" stroke="none" /><path d="M 93.42475214034765 119.94407469862007 l -8.04457736830432 24.400852314147244 a46.69273863743332,46.69273863743332 0 0,0 -0.7611589375068983,-0.2582264380427672 l 8.463406038748444 -24.258762889206356" fill="#fffb17" stroke="none" /><path d="M 93.08242187328487 119.8279376855182 l -8.579342607949778 24.591073276958838 a47.0446924439,47.0446924439 0 0,0 -0.7623042197547462,-0.2733351717190074 l 9.001366388334251 -24.439750564199873" fill="#feff18" stroke="none" /><path d="M 92.40401165467489 119.57807347666478 l -10.220938847179474 26.343680723750822 a49.256983296040346,49.256983296040346 0 0,0 -0.7878277403284858,-0.31349291678826 l 10.672887663549817 -26.163840962556495" fill="#dfff1b" stroke="none" /><path d="M 92.06813273071674 119.44442032107085 l -14.907859660664572 36.545579935768686 a60.469275297422534,60.469275297422534 0 0,0 -0.9603918635807379,-0.40144387686683625 l 15.534722983742773 -36.283551015881876" fill="#51ff2b" stroke="none" /><path d="M 91.40352486487194 119.15986991738527 l -6.277553702465276 13.991445382903832 a36.33519560977676,36.33519560977676 0 0,0 -0.5684416494220391,-0.2609436809473768 l 6.517463347654735 -13.88131463162238" fill="#ff5f08" stroke="none" /><path d="M 91.07499286063937 119.00905698771935 l -8.889392456752072 18.933202535085915 a41.91620081383673,41.91620081383673 0 0,0 -0.6504742309898731,-0.3122671601290628 l 9.213979355742186 -18.77738109845729" fill="#ffb510" stroke="none" /><path d="M 90.7491055286396 118.85261126421891 l -12.912860779756663 26.31541688680963 a50.31284939141815,50.31284939141815 0 0,0 -0.774209555913456,-0.3882047436617423 l 13.36392424335288 -26.089244302238583" fill="#d1ff1c" stroke="none" /><path d="M 90.42595943632237 118.69057910512821 l -12.126099431023624 23.672744975830522 a47.59776573514739,47.59776573514739 0 0,0 -0.7259998754466834,-0.3798088219605666 l 12.531790208996803 -23.46050673492524" fill="#f6ff19" stroke="none" /><path d="M 90.10565033884886 118.52300852407294 l -13.384615589677802 25.057063591807335 a49.407822343983405,49.407822343983405 0 0,0 -0.746710272725105,-0.40716597775328794 l 13.813948674271547 -24.82295696229428" fill="#ddff1b" stroke="none" /><line stroke="#e1ed5e" stroke-width="0.3" x1="58.666819895761336" x2="56.23545636021788" y1="174.27360380694188" y2="178.64263932499728" /><path d="M 58.180547188652646 175.14741091055294 a86.0,86.0 0 0,1 -31.652253787137756,-30.449443065178592" fill="none" id="id8" stroke="none" /><text fill="#e1ed5e" style="font-size:6.75px; font-family:Arial;" text-anchor="middle"><textPath startOffset="22.20632615414155" xlink:href="#id8">August</textPath></text><path d="M 89.7882731507175 118.34994917583269 l -8.092773181190191 14.54229815957289 a37.6424581574991,37.6424581574991 0 0,0 -0.5634739589488906,-0.3199552196581703 l 8.34189590706029 -14.400839774120088" fill="#ff740a" stroke="none" /><path d="M 89.4739219176387 118.17145234162733 l -12.19781757440188 21.05742129127218 a45.335195602594,45.335195602594 0 0,0 -0.67189378308286,-0.3969666901308149 l 12.558479228513121 -20.844336028847614" fill="#ffe815" stroke="none" /><path d="M 88.8546689885994 117.79835938074946 l -16.651284384595975 26.59100419044956 a52.37430119561543,52.37430119561543 0 0,0 -0.7599715561609331,-0.4850498039515896 l 17.10653774280383 -26.300439957674165" fill="#b6ff1f" stroke="none" /><path d="M 88.54995079064634 117.60387380957326 l -17.0791241038457 26.258292868866384 a52.32402312190633,52.32402312190633 0 0,0 -0.7507881919212205,-0.49758147437658595 l 17.528586994506885 -25.960413373398477" fill="#b6ff1f" stroke="none" /><path d="M 88.24862548938628 117.40417183066458 l -14.349244242719342 21.251702276606235 a46.64245815031634,46.64245815031634 0 0,0 -0.6615302402065086,-0.45500653136881475 l 14.712931367548741 -21.00155495587232" fill="#fffa17" stroke="none" /><path d="M 87.95078237400918 117.19931262002967 l -18.75177564004792 26.7666882136939 a53.681564950041704,53.681564950041704 0 0,0 -0.7522389315763003,-0.5367025044973092 l 19.209741899473105 -26.43994144735237" fill="#a5ff21" stroke="none" /><path d="M 87.65650970185807 116.9893568818739 l -18.086710509492892 24.894221346061993 a51.770949830658935,51.770949830658935 0 0,0 -0.7164483864998081,-0.5300113884706824 l 18.512543866411264 -24.579200008851544" fill="#beff1f" stroke="none" /><path d="M 87.36589467227662 116.77436683061367 l -15.366621413512105 20.402342536419532 a46.54189958949026,46.54189958949026 0 0,0 -0.6357873292174065,-0.48749461268137545 l 15.715537471222998 -20.13480858191079" fill="#fff917" stroke="none" /><path d="M 87.07902340077011 116.55440617244103 l -17.045789896249318 21.839133234667525 a48.70391116121756,48.70391116121756 0 0,0 -0.6564417680734317,-0.5215170416888012 l 17.41918915704011 -21.542482278973594" fill="#e7ff1a" stroke="none" /><path d="M 86.79598089348748 116.32954008644616 l -16.281093659434916 20.134988401508547 a46.89385580936481,46.89385580936481 0 0,0 -0.6233083782910428,-0.5129403607151738 l 16.625272166270648 -19.851752921936193" fill="#fffe18" stroke="none" /><path d="M 86.24171649860922 115.8653595955263 l -20.02802020518318 23.095304185989264 a51.56983265872744,51.56983265872744 0 0,0 -0.6656379762607463,-0.5873481216496782 l 20.422600534350515 -22.747132922567296" fill="#c0ff1e" stroke="none" /><path d="M 85.97065885151581 115.62618273729859 l -20.422600534350515 22.747132922567296 a51.56983265872744,51.56983265872744 0 0,0 -0.6554291224063461,-0.5987189632436942 l 20.811129206223715 -22.392221192737026" fill="#c0ff1e" stroke="none" /><path d="M 85.70375840098266 115.38237550388516 l -10.57670858887604 11.380256970506256 a36.53631273142892,36.53631273142892 0 0,0 -0.45698952847794994,-0.43211212302407703 l 10.771033951744805 -11.196510210736248" fill="#ff6209" stroke="none" /><path d="M 85.44109423537348 115.13401014063109 l -25.236986469149365 26.233895274675127 a57.40223547155655,57.40223547155655 0 0,0 -0.7061842984672623,-0.6911499681427379 l 25.68482071999242 -25.795595203609818" fill="#76ff27" stroke="none" /><path d="M 85.18274418774928 114.88116024355367 l -23.378863558519964 23.479692821316444 a54.13407968046301,54.13407968046301 0 0,0 -0.6546598589925878,-0.6631669808289168 l 23.779564042568083 -23.073785346506863" fill="#9fff22" stroke="none" /><path d="M 84.9287848128048 114.62390073753433 l -22.48052823804419 21.813304992142296 a52.32402312190633,52.32402312190633 0 0,0 -0.6216429035434085,-0.6517900990696862 l 22.85267769296656 -21.42310777649011" fill="#b6ff1f" stroke="none" /><path d="M 84.67929136418377 114.36230785411682 l -22.412498110212486 21.01046402554563 a51.7206717066705,51.7206717066705 0 0,0 -0.6032935388296481,-0.6547559844785703 l 22.770838057037864 -20.621556786265717" fill="#beff1e" stroke="none" /><path d="M 84.43433777217949 114.09645910891817 l -18.261392206642938 16.537746017176875 a45.636872542055514,45.636872542055514 0 0,0 -0.522305640248085,-0.5868159237428048 l 18.54335669653936 -16.220955923693207" fill="#ffec16" stroke="none" /><path d="M 84.19399662182784 113.82643327865904 l -31.107425518511448 27.211479911267233 a62.32960877326372,62.32960877326372 0 0,0 -0.6994494849020237,-0.8136177697644753 l 31.57121751298425 -26.671985042341227" fill="#3cff2e" stroke="none" /><path d="M 83.72743513129214 113.27417163493432 l -12.350526160827533 10.074810293479525 a36.93854757808522,36.93854757808522 0 0,0 -0.39767352200544603,-0.49615886380109664 l 12.52211759488784 -9.860723596100168" fill="#ff6909" stroke="none" /><path d="M 83.50135304334701 112.99209946851258 l -28.67841578955633 22.583235553569537 a57.502795239086566,57.502795239086566 0 0,0 -0.6056774427519647,-0.782919740897835 l 29.062900049526363 -22.08623781855845" fill="#75ff27" stroke="none" /><path d="M 83.28015986056508 112.70617746262583 l -24.459272376742486 18.587728879810662 a51.7206717066705,51.7206717066705 0 0,0 -0.5325720255014182,-0.7134672598357039 l 24.77560566893899 -18.163948740465653" fill="#beff1e" stroke="none" /><path d="M 82.85270091963577 112.12312394758628 l -29.682755474563617 20.98567955440283 a57.351956191143515,57.351956191143515 0 0,0 -0.5629752486533031,-0.8110078343632251 l 30.039591630379054 -20.47163045785259" fill="#76ff27" stroke="none" /><path d="M 82.6465618267979 111.8261652097733 l -20.85736500229097 14.214050374094935 a46.24022390701201,46.24022390701201 0 0,0 -0.4425781624010437,-0.6615943029959335 l 21.098946270102743 -13.852919156893181" fill="#fff417" stroke="none" /><path d="M 82.44556493220864 111.52570212397912 l -21.39315539990598 14.046087822200382 a46.592180076607235,46.592180076607235 0 0,0 -0.4344058220790764,-0.6742074827548181 l 21.631766085362102 -13.675758739524117" fill="#fff917" stroke="none" /><path d="M 82.24976979558568 111.22182372390057 l -29.918983867943215 18.91499767032805 a56.39664860631246,56.39664860631246 0 0,0 -0.511693131605877,-0.8250122547887261 l 30.240141639217047 -18.39718908417406" fill="#82ff25" stroke="none" /><path d="M 82.05923443525364 110.91462005526583 l -13.01528817901064 7.918108336627279 a36.234637048950674,36.234637048950674 0 0,0 -0.31958798779043085,-0.5356478502034757 l 13.149657042499301 -7.692898392537692" fill="#ff5e08" stroke="none" /><line stroke="#e1ed5e" stroke-width="0.3" x1="26.63291911575756" x2="22.317208475507996" y1="142.92168965132927" y2="145.44649492493687" /><path d="M 25.769776987707644 143.4266507060508 a86.0,86.0 0 0,1 -11.730757126820373,-40.83630448921669" fill="none" id="id9" stroke="none" /><text fill="#e1ed5e" style="font-size:6.75px; font-family:Arial;" text-anchor="middle"><textPath startOffset="21.46611528233685" xlink:href="#id9">September</textPath></text><path d="M 81.87401531095188 110.60418214915194 l -26.646499449137064 15.588909438208558 a51.871508391485015,51.871508391485015 0 0,0 -0.444237487655895,-0.7745655046173331 l 26.910888932945337 -15.127924087732918" fill="#bcff1f" stroke="none" /><path d="M 81.69416730710424 110.29060199501025 l -22.878638037933378 12.861199060758578 a47.245809565552165,47.245809565552165 0 0,0 -0.3924182734663568,-0.7123531519340942 l 23.096632720851254 -12.465475390426661" fill="#fbff18" stroke="none" /><path d="M 81.51974371655577 109.97397251340807 l -26.901825813108893 14.519174794172946 a51.56983265872744,51.56983265872744 0 0,0 -0.4148854228073503,-0.7848068662976384 l 27.147763744141127 -14.05395291278918" fill="#c0ff1e" stroke="none" /><path d="M 81.18737489456691 109.33194174019688 l -41.43882309459211 20.555593955326216 a67.25698328167482,67.25698328167482 0 0,0 -0.5055378943300316,-1.0415577976980408 l 41.78651424553686 -19.839247201662893" fill="#35ff64" stroke="none" /><path d="M 81.02952815118164 109.00673069616217 l -31.02194509220274 14.72848473898151 a55.34078246065533,55.34078246065533 0 0,0 -0.40115580068843126,-0.8640539061874636 l 31.270875509731 -14.192310765515218" fill="#8fff24" stroke="none" /><path d="M 80.87730276802145 108.67885076344099 l -27.01290934048802 12.259829563185537 a50.6648056112927,50.6648056112927 0 0,0 -0.3535894739376963,-0.7972509188345652 l 27.219939899156994 -11.793030307858277" fill="#ccff1d" stroke="none" /><path d="M 80.73074385275274 108.34839909993369 l -28.2349197229077 12.232769993827512 a51.770949830658935,51.770949830658935 0 0,0 -0.347232737447173,-0.8207556204326486 l 28.44130344154718 -11.744939847728704" fill="#beff1f" stroke="none" /><path d="M 80.58989483394504 108.01547362559985 l -38.29351928580655 15.81344826526596 a62.4301673340898,62.4301673340898 0 0,0 -0.401626304681398,-0.9968035510857025 l 38.56004820474534 -15.151945346337452" fill="#3aff2e" stroke="none" /><path d="M 80.45479744820244 107.68017299344265 l -38.8408261049483 15.262275379529969 a62.73184422327199,62.73184422327199 0 0,0 -0.38626601474847383,-1.0084186770890537 l 39.09778639929028 -14.591433135607756" fill="#37ff2e" stroke="none" /><path d="M 80.32549172779594 107.34259656027581 l -33.86904677713453 12.64004888584436 a57.15083906949135,57.15083906949135 0 0,0 -0.33603533753699705,-0.9246249274670741 l 34.08160637567675 -12.055176161371168" fill="#79ff26" stroke="none" /><path d="M 80.20201598880116 107.00284435728193 l -23.890305053786967 8.450359786381373 a46.340782467838096,46.340782467838096 0 0,0 -0.25952861521347836,-0.7543116384622857 l 24.032224499943673 -8.03787544482979" fill="#fff617" stroke="none" /><path d="M 80.0844068197444 106.66101706037122 l -26.034910272297186 8.707698531466983 a48.45251475915235,48.45251475915235 0 0,0 -0.25773911220699364,-0.7932394225256331 l 26.180941635520426 -8.258260208963547" fill="#ebff1a" stroke="none" /><path d="M 79.97269907076064 106.31721596034903 l -24.310875012896272 7.668384680698541 a46.49162151578115,46.49162151578115 0 0,0 -0.23416994567369542,-0.7652809314440201 l 24.439271731076097 -7.2487767767024724" fill="#fff817" stroke="none" /><path d="M 79.86692584326677 105.97154293290107 l -34.03180496442487 10.093956980792932 a56.49720716713854,56.49720716713854 0 0,0 -0.26851606050721905,-0.9347396326233547 l 34.2005136618182 -9.506659872664981" fill="#81ff25" stroke="none" /><path d="M 79.76711848015287 105.62410040840567 l -48.927082707674785 13.600179765220659 a71.78212590991014,71.78212590991014 0 0,0 -0.32066758647074245,-1.1933233805278427 l 49.153938370487296 -12.755965451517278" fill="#3bff9f" stroke="none" /><path d="M 79.67330655649465 105.27499134158121 l -20.586252719550895 5.342349711380645 a42.26815698343196,42.26815698343196 0 0,0 -0.17669837851169692,-0.7058221873366811 l 20.67516241235765 -4.987199684646572" fill="#ffbb11" stroke="none" /><path d="M 79.58551787078972 104.9243191809786 l -25.17188841317266 6.071886230073779 a46.89385580936481,46.89385580936481 0 0,0 -0.18252748739007751,-0.7863236384882853 l 25.27267646649329 -5.6376939342369194" fill="#fffe18" stroke="none" /><path d="M 79.50377843672027 104.57218783832718 l -25.27267646649329 5.6376939342369194 a46.89385580936481,46.89385580936481 0 0,0 -0.16896517513014556,-0.7893490468048336 l 25.36597568034788 -5.201831068015921" fill="#fffe18" stroke="none" /><line stroke="#e1ed5e" stroke-width="0.3" x1="15.007084014347285" x2="10.007500721073583" y1="101.09737516637583" y2="101.16192664675087" /><path d="M 14.007167355692545 101.11028546245083 a86.0,86.0 0 0,1 10.666146001902534,-42.60595125391555" fill="none" id="id10" stroke="none" /><text fill="#e1ed5e" style="font-size:6.75px; font-family:Arial;" text-anchor="middle"><textPath startOffset="22.20632615414155" xlink:href="#id10">October</textPath></text><line stroke="#e1ed5e" stroke-width="0.3" x1="26.266209847984243" x2="21.928928074336255" y1="57.711370442889674" y2="55.22380399835377" /><path d="M 25.398753493254645 57.213857153982495 a86.0,86.0 0 0,1 29.58750427330803,-30.492523968695096" fill="none" id="id11" stroke="none" /><text fill="#e1ed5e" style="font-size:6.75px; font-family:Arial;" text-anchor="middle"><textPath startOffset="21.46611528233685" xlink:href="#id11">November</textPath></text><line stroke="#e1ed5e" stroke-width="0.3" x1="56.762969772571076" x2="54.21961505331055" y1="26.818313649435495" y2="22.513508569990535" /><path d="M 56.25429882871897 25.957352633546506 a86.0,86.0 0 0,1 42.265352541879196,-11.944610805530505" fill="none" id="id12" stroke="none" /><text fill="#e1ed5e" style="font-size:6.75px; font-family:Arial;" text-anchor="middle"><textPath startOffset="22.20632615414155" xlink:href="#id12">December</textPath></text></svg>