<?xml version="1.0" encoding="utf-8" ?>
<svg baseProfile="full" height="200mm" version="1.1" viewBox="0,0,200,200" width="200mm" xmlns="http://www.w3.org/2000/svg" xmlns:ev="http://www.w3.org/2001/xml-events" xmlns:xlink="http://www.w3.org/1999/xlink"><defs /><rect fill="#1a1a1a" height="200" width="200" x="0" y="0" /><text alignment-baseline="middle" fill="#e1ed5e" style="dominant-baseline: central; font-size:9.0px; font-family:Arial;" text-anchor="middle" x="100.0" y="100.0">2019</text><line stroke="#e1ed5e" stroke-width="0.3" x1="100.0" x2="100.0" y1="15.0" y2="10.0" /><path d="M 100.0 14.0 a86.0,86.0 0 0,1 42.46469731375804,11.215312516191453" fill="none" id="id61" stroke="none" /><text fill="#e1ed5e" style="font-size:6.75px; font-family:Arial;" text-anchor="middle"><textPath startOffset="22.20632615414155" xlink:href="#id61">January</textPath></text><path d="M 100.0 79.0 l 0.0 -24.389758041990383 a45.38975804199038,45.38975804199038 0 0,0 0.781310071003942,0.006724982449523604 l -0.41982959173141365 24.38614443614942" fill="#fff917" stroke="none" /><path d="M 100.36148047927253 79.00311137660856 l 0.4273138293551263 -24.820872486007996 a45.82455051104505,45.82455051104505 0 0,0 0.7885605718504328,0.020366193090596337 l -0.854501036400427 24.80983950077504" fill="#ffff18" stroke="none" /><path d="M 100.72285384407766 79.0124445844662 l 0.8449440769198109 -24.53235987146025 a45.5469063500058,45.5469063500058 0 0,0 0.7833182278385317,0.03373133064438953 l -1.267103137147674 24.514180814291667" fill="#fffb17" stroke="none" /><path d="M 101.08401301168833 79.027996857942 l 1.2609177990648286 -24.394515341359668 a45.427081128039646,45.427081128039646 0 0,0 0.7805626134018361,0.047085668464433864 l -1.6806424613062767 24.36919640351493" fill="#fffa17" stroke="none" /><path d="M 101.44485096284872 79.0497635885617 l 1.7139219696794243 -24.85174691287628 a45.91077785095852,45.91077785095852 0 0,0 0.7879378453091229,0.06115914157639118 l -2.1414500043508884 24.818562509111423" fill="#feff18" stroke="none" /><path d="M 102.88285421437855 79.19881850522331 l 3.3295709691744 -24.0244580125138 a45.25408472059516,45.25408472059516 0 0,0 0.7706792599235446,0.11357808947724672 l -3.7426192095266004 23.963585438875587" fill="#fff717" stroke="none" /><path d="M 103.2404852339499 79.25152402106235 l 3.7688035931647823 -24.131241211303802 a45.42377290514262,45.42377290514262 0 0,0 0.7714920543926034,0.12730279937378405 l -4.18362485369626 24.062792148990393" fill="#fffa17" stroke="none" /><path d="M 103.59715602781102 79.31037775812273 l 4.1791442701911725 -24.03702135133059 a45.39761550388469,45.39761550388469 0 0,0 0.7687435030226659,0.14048296149258077 l -4.59228289431674 23.96152290848727" fill="#fff917" stroke="none" /><path d="M 103.95276090670814 79.375362276772 l 6.38948418826704 -33.33892429406988 a54.94568280765372,54.94568280765372 0 0,0 0.9273616972284356,0.1860200322981299 l -6.962412294962601 33.22400030569454" fill="#89ff24" stroke="none" /><path d="M 104.307194497241 79.44645832069477 l 5.032369975449271 -24.014013321742347 a45.53563904581705,45.53563904581705 0 0,0 0.7657734399689997,0.16736841380550996 l -5.444986139571799 23.923831409840968" fill="#fffb17" stroke="none" /><path d="M 104.66035177308747 79.52364482259891 l 6.56691648245725 -28.853297103373002 a50.59116668573717,50.59116668573717 0 0,0 0.8474654328082395,0.2005676874357296 l -7.062605602228014 28.7359835037964" fill="#c0ff1e" stroke="none" /><path d="M 105.01212808612495 79.60689891045804 l 5.839900228724273 -23.7610998104577 a45.46823039951984,45.46823039951984 0 0,0 0.7584341407701491,0.19334174972289153 l -6.248043258179448 23.65705506456594" fill="#fffa17" stroke="none" /><path d="M 105.36241919743992 79.69619591428918 l 13.006314334680631 -49.24599297544684 a71.93458585980923,71.93458585980923 0 0,0 1.1944639012920801,0.3264921053584001 l -13.852076125196422 49.014814329262144" fill="#3cffa6" stroke="none" /><path d="M 105.71112130821622 79.79150937346287 l 6.621368163322801 -23.429349376778173 a45.34701067017059,45.34701067017059 0 0,0 0.7493264904547297,0.21874895044903164 l -7.023684871500958 23.31190209741044" fill="#fff917" stroke="none" /><path d="M 106.40334571778207 80.00007090966166 l 17.73136838924784 -55.38137812469317 a79.15065320308501,79.15065320308501 0 0,0 1.2939894702548718,0.4266079837383785 l -18.68204068174513 55.06795641669556" fill="#46fff9" stroke="none" /><path d="M 106.74666289553966 80.11325718540242 l 13.71378245656971 -40.42331282172762 a63.686204431283976,63.686204431283976 0 0,0 1.0351070316810718,0.36112851849417504 l -14.407571492314055 40.18126345006124" fill="#31ff3c" stroke="none" /><path d="M 107.08798089147638 80.2323363322302 l 8.404354961307126 -23.43889815214597 a45.900102989793425,45.900102989793425 0 0,0 0.7414345801427112,0.2730766130903779 l -8.806571867222415 23.290758271249267" fill="#feff18" stroke="none" /><path d="M 107.4271985657038 80.35727306442388 l 8.844483619357835 -23.391023558121226 a46.00729640704231,46.00729640704231 0 0,0 0.73834444866779,0.28646617521385775 l -9.245811233025291 23.235314679016824" fill="#fcff18" stroke="none" /><path d="M 107.76421540070413 80.48803036053334 l 9.087075624023793 -22.83640194621724 a45.57796161698366,45.57796161698366 0 0,0 0.7264609021183701,0.29634164232103744 l -9.47882039573055 22.676599417712623" fill="#fffc17" stroke="none" /><path d="M 108.43124777332544 80.76684994638697 l 10.029369956583688 -22.878746124441168 a45.98049811258085,45.98049811258085 0 0,0 0.7221519275873155,0.32400851968499866 l -10.421704002637783 22.70271727423964" fill="#fdff18" stroke="none" /><line stroke="#e1ed5e" stroke-width="0.3" x1="143.23703022742887" x2="145.7803849466894" y1="26.81831364943548" y2="22.513508569990506" /><path d="M 143.74570117128098 25.957352633546492 a86.0,86.0 0 0,1 28.547481713284135,27.462654790039103" fill="none" id="id62" stroke="none" /><text fill="#e1ed5e" style="font-size:6.75px; font-family:Arial;" text-anchor="middle"><textPath startOffset="19.985693538727396" xlink:href="#id62">February</textPath></text><path d="M 113.06298171725822 83.55741782278167 l 18.21220874398492 -22.923995867344647 a50.27787789202823,50.27787789202823 0 0,0 0.6729971715637448,0.544183575588411 l -18.604109314113156 22.607106194492108" fill="#c4ff1e" stroke="none" /><path d="M 113.34407831869373 83.78471172551755 l 15.69744354569832 -19.07502085845292 a45.70356562565007,45.70356562565007 0 0,0 0.6031618451068228,0.5051306992709049 l -16.02346292776426 18.801989001788193" fill="#fffd18" stroke="none" /><path d="M 113.6212207817346 84.01681056812373 l 21.050287366002973 -24.700482868424043 a53.45348135600577,53.45348135600577 0 0,0 0.6951655829640356,0.602840743271005 l -21.472346747613773 24.334477131733365" fill="#9cff22" stroke="none" /><path d="M 114.16331599549186 84.49514656593476 l 16.614925366887007 -18.18867719349853 a45.635010107497806,45.635010107497806 0 0,0 0.5754186142575191,0.5347888905663161 l -16.925551864939376 17.899983716857577" fill="#fffd17" stroke="none" /><path d="M 114.94478906791727 85.2469230424477 l 21.003727546179007 -20.734291228603066 a50.51385104635864,50.51385104635864 0 0,0 0.6055305469688841,0.6240524562892263 l -21.357522356851 20.369674576763728" fill="#c1ff1e" stroke="none" /><path d="M 115.19652480421416 85.50635884689758 l 18.043801830568945 -17.209223301990487 a45.93463757824877,45.93463757824877 0 0,0 0.5407877839422216,0.5768747025717507 l -18.33735693648163 16.89607918254068" fill="#fdff18" stroke="none" /><path d="M 115.4437574822437 85.77008943001954 l 25.629458268850485 -23.6150366607417 a55.85023798545604,55.85023798545604 0 0,0 0.6453531152513694,0.7126150285016811 l -26.032155024717888 23.17036884497047" fill="#7eff26" stroke="none" /><path d="M 115.68641384162765 86.03803664274999 l 18.171060495851254 -16.17346599209215 a45.32629116288069,45.32629116288069 0 0,0 0.5137155281240515,0.5872656533540779 l -18.446767887553154 15.858284782535124" fill="#fff817" stroke="none" /><path d="M 116.15771136456269 86.58626213691792 l 22.433253967252142 -18.623540261564163 a50.156253796284176,50.156253796284176 0 0,0 0.5457514106785369,0.6690266991187136 l -22.75050387000709 18.23462939283735" fill="#c5ff1e" stroke="none" /><path d="M 116.38621287248628 86.86637796730983 l 19.38402785812012 -15.536383991883207 a45.84189532921395,45.84189532921395 0 0,0 0.48820727753415805,0.6199736642431164 l -19.64858921624824 15.200417933687053" fill="#ffff18" stroke="none" /><path d="M 116.60985879189232 87.15038557335679 l 23.0498991873256 -17.83171794781931 a50.142203374426835,50.142203374426835 0 0,0 0.5222526803887044,0.6872233096204502 l -23.35342780793842 17.432309862317826" fill="#c6ff1e" stroke="none" /><path d="M 116.82858285166822 87.43820079747576 l 31.165122527097125 -23.263397444583447 a59.890236857000865,59.890236857000865 0 0,0 0.6095610838931185,0.8314406333916893 l -31.56094622350387 22.723494367520264" fill="#4fff2b" stroke="none" /><path d="M 117.04232023915458 87.72973835380427 l 9.052618894280332 -6.517774625600222 a32.15487762887605,32.15487762887605 0 0,0 0.31953891299508935,0.45196513148182266 l -9.163470427079305 6.360982993786606" fill="#ff3505" stroke="none" /><path d="M 117.2510076193507 88.02491185347247 l 20.02332504665142 -13.899540694148056 a45.37479799777089,45.37479799777089 0 0,0 0.4398666070271189,0.6454499691238155 l -20.25961611934727 13.552812701753835" fill="#fff917" stroke="none" /><path d="M 117.65298651832404 88.62581576622439 l 20.593702113641847 -13.26894809855068 a45.498276477896326,45.498276477896326 0 0,0 0.41852435399530125,0.6620050191795536 l -20.819054063883105 12.912495431656922" fill="#fffb17" stroke="none" /><line stroke="#e1ed5e" stroke-width="0.3" x1="172.23445277983987" x2="176.4835382374775" y1="55.19839476539836" y2="52.563006222186495" /><path d="M 173.08426987136738 54.67131705675599 a86.0,86.0 0 0,1 12.851231095245387,41.99856678651699" fill="none" id="id63" stroke="none" /><text fill="#e1ed5e" style="font-size:6.75px; font-family:Arial;" text-anchor="middle"><textPath startOffset="22.20632615414155" xlink:href="#id63">March</textPath></text><path d="M 117.84615892207809 88.93136811851018 l 20.818505707998455 -12.912155327690922 a45.49763121447421,45.49763121447421 0 0,0 0.40706124383806036,0.6691016553223367 l -21.037682750122737 12.551885899161503" fill="#fffb17" stroke="none" /><path d="M 118.03404312379186 89.2402003453031 l 21.03851331977815 -12.552381448774543 a45.49859838321413,45.49859838321413 0 0,0 0.3954918552388451,0.6760237811716467 l -21.251464849487324 12.188378255249" fill="#fffb17" stroke="none" /><path d="M 118.21658344932153 89.55222093294921 l 21.833281055468323 -12.522068005285284 a46.16931363339218,46.16931363339218 0 0,0 0.38945433890135817,0.6927958124225815 l -22.045593035662115 12.144388682927909" fill="#faff18" stroke="none" /><path d="M 118.89224826269711 90.83032412892265 l 22.537307122658532 -10.938867542289966 a46.05172719492211,46.05172719492211 0 0,0 0.33999728385749706,0.7161209899216475 l -22.722262600357784 10.549304136727779" fill="#fcff18" stroke="none" /><path d="M 119.04729006885535 91.15688171328212 l 22.18038149449366 -10.29772405897544 a45.45429295719012,45.45429295719012 0 0,0 0.32336981199397424,0.7125025164358199 l -22.35435362345098 9.914399533697559" fill="#fffa17" stroke="none" /><path d="M 119.196687751892 91.48605970444005 l 22.586708738426662 -10.01745156026792 a45.708475213918675,45.708475213918675 0 0,0 0.31279678700788927,0.7219781108618518 l -22.75579623527723 9.627174304819466" fill="#fffe18" stroke="none" /><path d="M 119.34039704204932 91.81776055985345 l 22.521207059750456 -9.527927903618219 a45.45375589893504,45.45375589893504 0 0,0 0.2986491696962672,0.7232026530591609 l -22.681877916332922 9.138850680105755" fill="#fffa17" stroke="none" /><path d="M 119.47837535516314 92.15188598940014 l 23.057176322541963 -9.290063736955705 a45.858372114953326,45.858372114953326 0 0,0 0.28870345645342843,0.734718806282641 l -23.213673328877093 8.89179592577728" fill="#feff18" stroke="none" /><path d="M 119.61058180528143 92.48833698450437 l 36.66766428018668 -14.045230293162936 a60.26558413868893,60.26558413868893 0 0,0 0.3627282526856911,0.9719313800564732 l -36.90399712137399 13.41197577607713" fill="#4bff2c" stroke="none" /><path d="M 119.7369772167798 92.82701384747503 l 36.63433224125789 -13.313971789466116 a59.97866267040939,59.97866267040939 0 0,0 0.34429728581264446,0.9733747905634729 l -36.85808260788034 12.68139937247603" fill="#4eff2b" stroke="none" /><path d="M 119.85752413597 93.16781622104841 l 27.634163242602092 -9.507815806151282 a50.224057547207245,50.224057547207245 0 0,0 0.2742298264821495,0.8199122765504855 l -27.79373036285601 9.030730426678481" fill="#c4ff1e" stroke="none" /><path d="M 119.97218684219823 93.5106431181261 l 23.27750884700611 -7.563321103628016 a45.47542122699899,45.47542122699899 0 0,0 0.23548584198890726,0.7465544714141137 l -23.404250172763224 7.161516465787483" fill="#fffa17" stroke="none" /><path d="M 120.08093135843002 93.85539295169968 l 27.92691352832762 -8.545415879398309 a50.205078869446,50.205078869446 0 0,0 0.24575171632480636,0.8285526177248921 l -28.06987114176413 8.063433874926888" fill="#c5ff1e" stroke="none" /><path d="M 120.18372546131832 94.20196356495316 l 24.840199104260655 -7.135668771176113 a46.844791745170824,46.844791745170824 0 0,0 0.21596169385696015,0.7769291170731518 l -24.95934756868398 6.70702835068401" fill="#f1ff19" stroke="none" /><path d="M 120.28053869075195 94.5502522615342 l 32.867090455562405 -8.831981961200597 a55.03306539789054,55.03306539789054 0 0,0 0.23796210507380863,0.9169650617012275 l -33.01424889250652 8.26492047395052" fill="#88ff25" stroke="none" /><path d="M 120.45610955862082 95.25157060432595 l 61.36832867586249 -14.245288187022162 a84.0,84.0 0 0,0 0.31482245199184966,1.4112873218001445 l -61.60444551485638 13.186822695672053" fill="#4dd2ff" stroke="none" /><path d="M 120.53481517161879 95.60439243477599 l 19.883349094016502 -4.256157115085405 a41.33377595486925,41.33377595486925 0 0,0 0.1429375196349703,0.6970141089669819 l -19.95366590956647 3.913267349955012" fill="#ffc011" stroke="none" /><path d="M 120.6074358757038 95.95851677861258 l 23.929965131816175 -4.69309006476859 a45.38582222452152,45.38582222452152 0 0,0 0.1437526242866604,0.7679322670837777 l -24.007203480012695 4.28047972022225" fill="#fff917" stroke="none" /><path d="M 120.67395015179393 96.31383870115 l 26.087919622861268 -4.651471004584774 a47.49935344032686,47.49935344032686 0 0,0 0.13659035872639663,0.806164029140071 l -26.164121843107885 4.201721187128865" fill="#e8ff1a" stroke="none" /><path d="M 120.73433829027371 96.67025291283417 l 24.869175944218537 -3.9937645948084444 a46.18781585972161,46.18781585972161 0 0,0 0.11930556215717779,0.7860745897588366 l -24.934237399815014 3.5650908926575258" fill="#faff18" stroke="none" /><path d="M 120.83666639777658 97.38593545837742 l 24.124940650385884 -3.0265950761515406 a45.314050241365095,45.314050241365095 0 0,0 0.09043313569491657,0.7747758800487788 l -24.173464139084388 2.610875457777909" fill="#fff817" stroke="none" /><path d="M 120.91429891909075 98.10471618934814 l 24.52231995471082 -2.222247859686283 a45.62280571972026,45.62280571972026 0 0,0 0.06414461373703086,0.7827267599404293 l -24.556939052267346 1.7998071825380848" fill="#fffc17" stroke="none" /><path d="M 120.96714384426684 98.82574320788733 l 33.960836602073535 -1.9019635359976608 a55.01405427180068,55.01405427180068 0 0,0 0.044813903097005205,0.9459506655803209 l -33.98854411340403 1.31710176379434" fill="#88ff25" stroke="none" /><path d="M 120.98425023603335 99.18683210126433 l 29.21701081180643 -1.1321984355856103 a50.238939687935954,50.238939687935954 0 0,0 0.02604842502603173,0.8644204129031553 l -29.232170931288106 0.6291078752574559" fill="#c4ff1e" stroke="none" /><line stroke="#e1ed5e" stroke-width="0.3" x1="184.98032266829074" x2="189.97916517819016" y1="98.17113171792111" y2="98.06355123074" /><path d="M 185.9800911702706 98.14961562048488 a86.0,86.0 0 0,1 -9.607161424134198,41.387399972396054" fill="none" id="id64" stroke="none" /><text fill="#e1ed5e" style="font-size:6.75px; font-family:Arial;" text-anchor="middle"><textPath startOffset="21.466115282336823" xlink:href="#id64">April</textPath></text><path d="M 120.99980553446 99.90962569577887 l 24.396444625565 -0.10499200599199554 a45.39667054517033,45.39667054517033 0 0,0 -0.0033630344483171525,0.7814507677709066 l -24.39463729382718 -0.3149682399825958" fill="#fff917" stroke="none" /><path d="M 120.99824983174949 100.27111621757518 l 24.34792347351143 0.31436510046506594 a45.34995283133746,45.34995283133746 0 0,0 -0.016796623350476735,0.780473086032537 l -24.338904787475943 -0.7334280022877177" fill="#fff917" stroke="none" /><path d="M 120.95626037817324 101.35467743843564 l 24.853681318031168 1.6066187733892394 a45.9055555838704,45.9055555838704 0 0,0 -0.0577610835691136,0.7881040939059986 l -24.822343675797715 -2.034196003792008" fill="#feff18" stroke="none" /><path d="M 120.92983693683757 101.71520430193887 l 24.273948043360424 1.9892548725849415 a45.3553215655196,45.3553215655196 0 0,0 -0.07046360366943565,0.7775599948548305 l -24.236109843413914 -2.4067962559883425" fill="#fff917" stroke="none" /><path d="M 120.89721153311464 102.0752229133903 l 24.723812152501257 2.45522812476316 a45.84542276751991,45.84542276751991 0 0,0 -0.08474351421649522,0.7846196936853992 l -24.67788633678371 -2.880444140333351" fill="#ffff18" stroke="none" /><path d="M 120.8583938346157 102.4346265915055 l 24.33838021641364 2.840816418506558 a45.50361176403126,45.50361176403126 0 0,0 -0.0975044691999416,0.7772065550265357 l -24.28587423796685 -3.2593407278204887" fill="#fffb17" stroke="none" /><path d="M 120.81339534386255 102.79330883721812 l 24.344616948483004 3.2672244262606522 a45.56288113841534,45.56288113841534 0 0,0 -0.11101276437451506,0.7764230154762063 l -24.28477013309189 -3.685792913717268" fill="#fffc17" stroke="none" /><path d="M 120.70491114924044 103.5080841355445 l 13.147465099315282 2.227607421499364 a34.33484433212598,34.33484433212598 0 0,0 -0.10374609640969218,0.5818632044903558 l -13.1071725605664 -2.453589376722938" fill="#ff5708" stroke="none" /><path d="M 120.64145759157962 103.86396538481128 l 47.59570789561523 8.909650249179535 a69.42244601057897,69.42244601057897 0 0,0 -0.22998686771187227,1.1726980836009333 l -47.43529109492769 -9.727612059848413" fill="#39ff87" stroke="none" /><path d="M 120.49622156327973 104.57218783832717 l 23.75706357398883 5.299599090105454 a45.340990533961296,45.340990533961296 0 0,0 -0.17648318601876942,0.7602849463747524 l -23.662319822039507 -5.7077526938287715" fill="#fff817" stroke="none" /><path d="M 120.41448212921028 104.9243191809786 l 23.748604984936136 5.728566137931661 a45.429750484341646,45.429750484341646 0 0,0 -0.1899151469963655,0.7586166075229183 l -23.64647852364471 -6.136510584851974" fill="#fffa17" stroke="none" /><path d="M 120.23288151984713 105.62410040840565 l 23.495304417257117 6.530950672502601 a45.3861158519811,45.3861158519811 0 0,0 -0.21570802596039226,0.750907936602563 l -23.379403754410628 -6.934416084609746" fill="#fff917" stroke="none" /><path d="M 120.13307415673323 105.97154293290107 l 23.95428617030324 7.104928297555852 a45.985752581064894,45.985752581064894 0 0,0 -0.231621974725413,0.7569540149604169 l -23.828437423071698 -7.516209285068326" fill="#fdff18" stroke="none" /><path d="M 120.02730092923936 106.31721596034902 l 46.265125054906655 14.593418625756874 a69.51215995534253,69.51215995534253 0 0,0 -0.36976413883856624,1.1380170027412482 l -46.00706866505184 -15.387634528475918" fill="#39ff88" stroke="none" /><path d="M 119.9155931802556 106.66101706037122 l 23.496338383921657 7.858641689202686 a45.77571727823484,45.77571727823484 0 0,0 -0.25636400343194254,0.7451137953032108 l -23.357583549546483 -8.261928187595196" fill="#fffe18" stroke="none" /><path d="M 119.79798401119884 107.00284435728193 l 23.021448814615653 8.143032282311843 a45.419174438845005,45.419174438845005 0 0,0 -0.2670555299223287,0.7348221225600194 l -22.877869023688095 -8.538102201877994" fill="#fffa17" stroke="none" /><path d="M 119.26925614724726 108.34839909993367 l 22.638978287273368 9.808330145836512 a45.67238695670446,45.67238695670446 0 0,0 -0.318747404290865,0.7186912498186981 l -22.46678979825123 -10.196569732147898" fill="#fffd17" stroke="none" /><path d="M 119.12269723197855 108.67885076344098 l 22.18235865618453 10.067480440792917 a45.360032799184665,45.360032799184665 0 0,0 -0.3288070653816049,0.708221166782224 l -22.005776973963094 -10.447821674853971" fill="#fff917" stroke="none" /><path d="M 118.97047184881838 109.00673069616215 l 22.08949134038134 10.487567273157365 a45.45270322450636,45.45270322450636 0 0,0 -0.3416457705736287,0.7038914795162955 l -21.905692313192997 -10.866247708638936" fill="#fffa17" stroke="none" /><line stroke="#e1ed5e" stroke-width="0.3" x1="174.80103733775053" x2="179.2010983576182" y1="140.37084112569926" y2="142.7455964860345" /><path d="M 175.68104954172406 140.8457921977663 a86.0,86.0 0 0,1 -30.038265399797805,32.042727171017184" fill="none" id="id65" stroke="none" /><text fill="#e1ed5e" style="font-size:6.75px; font-family:Arial;" text-anchor="middle"><textPath startOffset="22.206326154141568" xlink:href="#id65">May</textPath></text><path d="M 118.30583269289576 110.29060199501025 l 21.464746287237144 12.066381500993055 a45.62382780363297,45.62382780363297 0 0,0 -0.39073115992242646,0.6812727121522341 l -21.253863131162337 -12.434074059003605" fill="#fffc17" stroke="none" /><path d="M 118.12598468904814 110.60418214915192 l 41.991749216231405 24.56628785080416 a69.64986640277071,69.64986640277071 0 0,0 -0.6143089172788884,1.0296170803423204 l -41.56265942325429 -25.285467025032585" fill="#39ff89" stroke="none" /><path d="M 117.55443506779139 111.5257021239791 l 13.424247495699511 8.813948000974982 a37.059143818699845,37.059143818699845 0 0,0 -0.35470346779505435,0.530233557555112 l -13.270540922493735 -9.0437184727359" fill="#ff810b" stroke="none" /><path d="M 117.35343817320211 111.8261652097733 l 24.933574132979086 16.99193923553943 a51.172986561310566,51.172986561310566 0 0,0 -0.5023215727406074,0.7236316904460665 l -24.637391653076342 -17.418612188172517" fill="#b8ff1f" stroke="none" /><path d="M 117.14729908036423 112.12312394758627 l 20.22329873649665 14.297852744188905 a45.767123468018994,45.767123468018994 0 0,0 -0.4603305391088759,0.6393588571755073 l -19.97418840501217 -14.643845206815545" fill="#fffe18" stroke="none" /><path d="M 116.93607887273984 112.41649034213515 l 19.93402401333618 14.614399147601368 a45.717321372059615,45.717321372059615 0 0,0 -0.47075503159940796,0.6306532945152001 l -19.67950771504168 -14.955365321625882" fill="#fffe18" stroke="none" /><path d="M 116.71984013943494 112.70617746262583 l 19.696727129552688 14.968451148688509 a45.73894883390827,45.73894883390827 0 0,0 -0.48176874617486126,0.6227510475115406 l -19.436151566159758 -15.305280190313303" fill="#fffe18" stroke="none" /><path d="M 116.498646956653 112.99209946851258 l 19.120151868382507 15.056441633046855 a45.3367344177348,45.3367344177348 0 0,0 -0.48808683703695477,0.6089633759856171 l -18.8581471192907 -15.383332842610724" fill="#fff817" stroke="none" /><path d="M 116.27256486870786 113.27417163493432 l 19.018164174037516 15.513865052275504 a45.5432389348036,45.5432389348036 0 0,0 -0.5007674308500129,0.6032066297282598 l -18.748300743293957 -15.838932939117534" fill="#fffb17" stroke="none" /><path d="M 116.0416608686014 113.55231037782055 l 37.350280473523505 31.554251010666874 a69.89493029236306,69.89493029236306 0 0,0 -0.7843458984011253,0.9123714783640644 l -36.801592065551596 -32.19249958819247" fill="#39ff8c" stroke="none" /><path d="M 115.80600337817218 113.82643327865902 l 18.32609516492567 16.03090458693184 a45.34821689301342,45.34821689301342 0 0,0 -0.5190020292601668,0.583104281776534 l -18.04743428601716 -16.343983038449238" fill="#fff917" stroke="none" /><path d="M 115.32070863581623 114.36230785411682 l 18.180622248106058 17.043316984455743 a45.92006579367251,45.92006579367251 0 0,0 -0.5455597893222953,0.5720172579851321 l -17.884555907404796 -17.353741359023385" fill="#feff18" stroke="none" /><path d="M 115.07121518719521 114.62390073753431 l 17.73948919515559 17.212980234329518 a45.71793206262329,45.71793206262329 0 0,0 -0.5528808309703476,0.5600653627931429 l -17.440567739129705 -17.515786091103326" fill="#fffe18" stroke="none" /><path d="M 114.55890576462653 115.13401014063108 l 33.65079476561414 34.98006494831952 a69.53844797834121,69.53844797834121 0 0,0 -0.8697742102852012,0.822425804393598 l -33.043684720938124 -35.554125389459045" fill="#39ff88" stroke="none" /><path d="M 114.29624159901734 115.38237550388516 l 16.608612842451986 17.870425424176272 a45.39668267186149,45.39668267186149 0 0,0 -0.5769711932299829,0.5270495051606362 l -16.29854209975514 -18.15366769592349" fill="#fff917" stroke="none" /><path d="M 114.0293411484842 115.62618273729858 l 16.319631718722935 18.177157768362594 a45.42825093965371,45.42825093965371 0 0,0 -0.586365467203411,0.5173993492631639 l -16.004323898612938 -18.455380259398044" fill="#fffa17" stroke="none" /><path d="M 113.75828350139079 115.86535959552629 l 15.967461093360257 18.41287192898208 a45.3719852790262,45.3719852790262 0 0,0 -0.5944475974522905,0.5066011388140547 l -15.648148019330918 -18.68499745801908" fill="#fff917" stroke="none" /><path d="M 113.48314897796784 116.09983520530334 l 15.608446470792567 18.63759099607853 a45.31015013052582,45.31015013052582 0 0,0 -0.6022579229311628,0.4956172690617065 l -15.285318419316713 -18.903503383997418" fill="#fff817" stroke="none" /><path d="M 113.20401910651253 116.32954008644616 l 15.287301059240365 18.905955334259612 a45.31330337031295,45.31330337031295 0 0,0 -0.6107424285329849,0.4852107224943146 l -14.95960113799003 -19.166299970759052" fill="#fff817" stroke="none" /><path d="M 112.92097659922987 116.55440617244103 l 15.059768422308938 19.294634690435306 a45.47610166613391,45.47610166613391 0 0,0 -0.6212279575296658,0.47633110731467543 l -14.725411736285778 -19.551005139577352" fill="#fffa17" stroke="none" /><path d="M 112.63410532772338 116.77436683061366 l 14.957614763451378 19.859302296821063 a45.86206200475618,45.86206200475618 0 0,0 -0.6346764050560884,0.4695184314905915 l -14.613553387976726 -20.113830677051425" fill="#feff18" stroke="none" /><path d="M 111.7513745106137 117.40417183066458 l 18.124571169306297 26.843085521852053 a53.38906174011085,53.38906174011085 0 0,0 -0.7660702434680741,0.5077095848370435 l -17.659826227098257 -27.151093127780417" fill="#9cff22" stroke="none" /><line stroke="#e1ed5e" stroke-width="0.3" x1="143.8653032363475" x2="146.44561519142675" y1="172.8068346515853" y2="177.08958963109032" /><path d="M 144.38136562736335 173.6633856474863 a86.0,86.0 0 0,1 -40.68145358897372,12.25698825130547" fill="none" id="id66" stroke="none" /><text fill="#e1ed5e" style="font-size:6.75px; font-family:Arial;" text-anchor="middle"><textPath startOffset="21.466115282336833" xlink:href="#id66">June</textPath></text><path d="M 110.5260780823613 118.17145234162733 l 12.239213351389626 21.128883936978546 a45.41778204266604,45.41778204266604 0 0,0 -0.679863608991252,0.38604430053549815 l -11.873700975477174 -21.336431403308673" fill="#fffa17" stroke="none" /><path d="M 110.21172684928248 118.3499491758327 l 11.8791966590892 21.346306864771318 a45.42908369199097,45.42908369199097 0 0,0 -0.6865788019784724,0.3743775054707998 l -11.509995045242079 -21.54762502200189" fill="#fffa17" stroke="none" /><path d="M 109.89434966115114 118.52300852407294 l 11.593007198018526 21.7030303660759 a45.605270633832134,45.605270633832134 0 0,0 -0.6956087179408421,0.3639096047283188 l -11.217707577551188 -21.899369389748934" fill="#fffc17" stroke="none" /><path d="M 109.57404056367764 118.69057910512821 l 11.200537486916184 21.865849692906068 a45.56760922003961,45.56760922003961 0 0,0 -0.7011902312235625,0.3515913384059148 l -10.82249334800986 -22.055408872221285" fill="#fffc17" stroke="none" /><path d="M 108.92500713936063 119.00905698771935 l 10.398096670671663 22.14653827053099 a45.466090242225604,45.466090242225604 0 0,0 -0.7112888453284644,0.32651782237549515 l -10.01533982957578 -22.322243163240557" fill="#fffa17" stroke="none" /><path d="M 108.59647513512805 119.15986991738527 l 10.105376710349654 22.522917846326106 a45.68603789129459,45.68603789129459 0 0,0 -0.7202715525052433,0.3157458817885484 l -9.716184483186657 -22.693528281409108" fill="#fffd17" stroke="none" /><path d="M 108.2653958097858 119.30500536409082 l 9.725833783573576 22.716065592388045 a45.71055399588154,45.71055399588154 0 0,0 -0.7259892552289936,0.30346356756519133 l -9.33337306884712 -22.88011420297321" fill="#fffe18" stroke="none" /><path d="M 107.93186726928326 119.44442032107085 l 9.322343461774354 22.853075889217045 a45.68135258079671,45.68135258079671 0 0,0 -0.7306382642757198,0.2907360440105928 l -8.927584121456768 -23.01015877763371" fill="#fffd17" stroke="none" /><path d="M 107.59598834532513 119.57807347666477 l 8.897158165400622 22.931738225075648 a45.59723645947956,45.59723645947956 0 0,0 -0.734180166570732,0.2776041176974377 l -8.501107778069615 -23.081490592879717" fill="#fffc17" stroke="none" /><path d="M 107.2578585660854 119.70592522655815 l 8.4615305439748 22.97403382603243 a45.482723079475875,45.482723079475875 0 0,0 -0.7369943330114358,0.26425994681549564 l -8.06481665033363 -23.11628131388788" fill="#fffa17" stroke="none" /><path d="M 106.91757812671514 119.82793768551818 l 8.017450243980788 22.980514411606862 a45.3389307702039,45.3389307702039 0 0,0 -0.7390899180430704,0.25073942842306013 l -7.62069059300049 -23.115116826928045" fill="#fff817" stroke="none" /><path d="M 106.57524785965236 119.94407469862006 l 7.63290764243108 23.152173642373068 a45.37794953322525,45.37794953322525 0 0,0 -0.743936163229999,0.2381848667365198 l -7.233250134110141 -23.280131355769296" fill="#fff917" stroke="none" /><path d="M 106.2309692047433 120.05430185196036 l 7.2777955342418315 23.423500207548763 a45.52807921161515,45.52807921161515 0 0,0 -0.7504003609908003,0.22608947313850353 l -6.873520198810786 -23.545305049792994" fill="#fffb17" stroke="none" /><path d="M 105.88484417918355 120.15858648285463 l 6.82553565939492 23.380933579928712 a45.356846924565374,45.356846924565374 0 0,0 -0.7513444456241315,0.2123374453101954 l -6.422060045666183 -23.494959818577424" fill="#fff917" stroke="none" /><path d="M 105.53697534728816 120.25689768951611 l 6.433209811441053 23.535750981693987 a45.399134467237374,45.399134467237374 0 0,0 -0.7555919706850199,0.19955870692646838 l -6.027127397944535 -23.643001037924037" fill="#fff917" stroke="none" /><path d="M 105.18746579009965 120.34920634021253 l 6.0237806435293875 23.629872508711596 a45.38558607086004,45.38558607086004 0 0,0 -0.7586886147704613,0.1864672027082902 l -5.616138744015714 -23.730060969733916" fill="#fff917" stroke="none" /><path d="M 104.83641907484287 120.43548508189849 l 5.623992105219279 23.76324404242358 a45.41968580099565,45.41968580099565 0 0,0 -0.7623582888456234,0.1735102645157685 l -5.2141136669807935 -23.856531040517034" fill="#fffa17" stroke="none" /><path d="M 104.48393922423573 120.51570834832081 l 5.200318956867123 23.79341505359374 a45.35507990472897,45.35507990472897 0 0,0 -0.7641435494212353,0.1601337104097852 l -4.789983946016509 -23.879404744730067" fill="#fff917" stroke="none" /><path d="M 104.13013068566511 120.58985236759428 l 4.791515215925172 23.887038551927436 a45.362865776540126,45.362865776540126 0 0,0 -0.7669184022146969,0.14698173706562775 l -4.379629199138771 -23.965977487341533" fill="#fff917" stroke="none" /><path d="M 103.7750983002368 120.6578951692458 l 6.538602858778489 35.78020005505653 a57.37273763857615,57.37273763857615 0 0,0 -0.9730171199734823,0.16917149851057173 l -5.921736767332956 -35.88745013208811" fill="#6cff28" stroke="none" /><path d="M 103.41894727170886 120.7198165907248 l 3.9665411682939813 24.038395147735724 a45.363453985805364,45.363453985805364 0 0,0 -0.7715332793607116,0.1204976308528526 l -3.5521720253247526 -24.10311108593568" fill="#fff917" stroke="none" /><path d="M 103.06178313531738 120.77559828337769 l 3.55081253291063 24.09388630840676 a45.354129569465336,45.354129569465336 0 0,0 -0.7733341462111183,0.10717706602807234 l -3.135549795512681 -24.151437939927433" fill="#fff917" stroke="none" /><path d="M 102.70371172650421 120.8252237178851 l 3.1424231198905916 24.204379426422612 a45.407515368891055,45.407515368891055 0 0,0 -0.7759767644413327,0.09395997963098394 l -2.7253189323978786 -24.254884934778946" fill="#fff917" stroke="none" /><path d="M 102.34483914955558 120.86867818915974 l 2.722728139037605 24.23182730504754 a45.38431264277824,45.38431264277824 0 0,0 -0.7770818786572996,0.08054771401893587 l -2.305213663774703 -24.275104387522234" fill="#fff917" stroke="none" /><path d="M 101.98527174616119 120.90594882070398 l 2.3037106737501842 24.259277117229704 a45.36841416914312,45.36841416914312 0 0,0 -0.7780805789558118,0.06713606634463828 l -1.8857857770528308 -24.295337435853007" fill="#fff917" stroke="none" /><path d="M 101.62511606390274 120.93702456842531 l 1.8918796925272587 24.373847802490822 a45.44716068319558,45.44716068319558 0 0,0 -0.7804732647249522,0.053826005867879556 l -1.472043667023376 -24.402802152874987" fill="#fffa17" stroke="none" /><path d="M 101.26447882468166 120.96189622390904 l 1.472408321016011 24.40884720400755 a45.45321672280325,45.45321672280325 0 0,0 -0.7813882650438062,0.04038884796795357 l -1.0520319875587252 -24.430575858737708" fill="#fffa17" stroke="none" /><path d="M 100.90346689309514 120.98055641714683 l 1.9129542426901958 44.423149004039395 a65.46431784442119,65.46431784442119 0 0,0 -1.1262345585091083,0.03878979537316183 l -1.1479993325064353 -44.44949559783865" fill="#33ff54" stroke="none" /><line stroke="#e1ed5e" stroke-width="0.3" x1="102.19456741930631" x2="102.32365962044197" y1="184.97166512339345" y2="189.96999836594603" /><path d="M 102.22038585953345 185.97133177190398 a86.0,86.0 0 0,1 -42.740103519485714,-10.115201625700543" fill="none" id="id67" stroke="none" /><text fill="#e1ed5e" style="font-size:6.75px; font-family:Arial;" text-anchor="middle"><textPath startOffset="22.20632615414155" xlink:href="#id67">July</textPath></text><path d="M 100.54218724476979 120.99299961872073 l 0.6303934621427494 24.40826455817066 a45.41640380274627,45.41640380274627 0 0,0 -0.7816818606868774,0.013457362121973727 l -0.210151911563204 -24.415499397571796" fill="#fffa17" stroke="none" /><path d="M 100.18074693466247 120.99922214144158 l 0.21275663171538417 24.718116408444292 a45.71903202323549,45.71903202323549 0 0,0 -0.7870071327556623,0.0 l 0.21275663171536713 -24.718116408444292" fill="#fffe18" stroke="none" /><path d="M 99.81925306533755 120.99922214144158 l -0.21170214830986514 24.595606273940742 a45.5965173506802,45.5965173506802 0 0,0 -0.7847818748116285,-0.013510731676466587 l 0.6350437130141615 -24.588318064985117" fill="#fffc17" stroke="none" /><path d="M 99.45781275523022 120.99299961872073 l -0.6726498588313399 26.044394009997063 a47.053078842635024,47.053078842635024 0 0,0 -0.8094914179472608,-0.027880521176752826 l 1.1208616284532438 -26.028956690394217" fill="#eeff19" stroke="none" /><path d="M 99.09653310690486 120.98055641714683 l -1.0530233399452014 24.45359731622865 a45.476259515267735,45.476259515267735 0 0,0 -0.7817843947112504,-0.04040932334700718 l 1.4737958030699407 -24.43184818611944" fill="#fffa17" stroke="none" /><path d="M 98.73552117531835 120.96189622390904 l -2.9725886042540326 49.27808407897648 a70.36765999624467,70.36765999624467 0 0,0 -1.2084380300710762,-0.08334096174389428 l 3.820389395104039 -49.2196147727163" fill="#3aff92" stroke="none" /><path d="M 98.37488393609728 120.93702456842531 l -1.8909673989406428 24.362094356899757 a45.43537188500194,45.43537188500194 0 0,0 -0.7792289219004596,-0.0672351502058776 l 2.310040638582644 -24.325934954415217" fill="#fffa17" stroke="none" /><path d="M 98.01472825383883 120.90594882070398 l -2.4296396398180264 25.585374929657387 a46.70047779848686,46.70047779848686 0 0,0 -0.7996175971085742,-0.08288363337939665 l 2.8696898335321936 -25.53976192782223" fill="#f3ff19" stroke="none" /><path d="M 97.65516085044442 120.86867818915974 l -2.8665463667430657 25.511785596553175 a46.67232541857449,46.67232541857449 0 0,0 -0.79759131881657,-0.09657720115345847 l 3.3052651086110254 -25.458662866674366" fill="#f3ff19" stroke="none" /><path d="M 97.2962882734958 120.8252237178851 l -3.202948172672936 24.670571051947416 a45.87761952088694,45.87761952088694 0 0,0 -0.7822601835637394,-0.10841413347090312 l 3.6271369474235065 -24.61178235298391" fill="#feff18" stroke="none" /><path d="M 96.93821686468263 120.77559828337769 l -3.5577865474255694 24.141208185098122 a45.40196257995022,45.40196257995022 0 0,0 -0.7721882264450639,-0.12059992011776134 l 3.9728106374791503 -24.076389957633257" fill="#fff917" stroke="none" /><path d="M 96.58105272829116 120.7198165907248 l -3.970943791448382 24.065076326773628 a45.39049596068688,45.39049596068688 0 0,0 -0.7698034200853521,-0.13384019197725042 l 4.384596183005784 -23.99315755627537" fill="#fff917" stroke="none" /><path d="M 96.22490169976321 120.6578951692458 l -4.4026459271188285 24.091928420518983 a45.49090251866979,45.49090251866979 0 0,0 -0.7690830303090391,-0.14739659319176288 l 4.816696571999563 -24.01257462897875" fill="#fffb17" stroke="none" /><path d="M 95.86986931433489 120.58985236759428 l -4.8188853869606 24.023486481493293 a45.502031734106325,45.502031734106325 0 0,0 -0.766619397611325,-0.16065254847024352 l 5.231696246001312 -23.93697795229651" fill="#fffb17" stroke="none" /><path d="M 95.51606077576429 120.51570834832081 l -5.201206432524718 23.79747558850452 a45.35923629219941,45.35923629219941 0 0,0 -0.7613436586632519,-0.1732793379896083 l 5.610070240580833 -23.70441951693722" fill="#fff917" stroke="none" /><path d="M 94.81253420990036 120.34920634021253 l -6.024275901132559 23.631815287626512 a45.38759098233084,45.38759098233084 0 0,0 -0.7553998488613188,-0.19950796580666122 l 6.430166192805367 -23.52461597251627" fill="#fff917" stroke="none" /><path d="M 94.46302465271185 120.25689768951611 l -6.48753757320256 23.734507855741185 a45.60518252153304,45.60518252153304 0 0,0 -0.7554581701019798,-0.21350002493851847 l 6.895126911409153 -23.619319037464145" fill="#fffc17" stroke="none" /><path d="M 94.11515582081647 120.15858648285463 l -7.138923774861379 24.45444737842087 a46.47516887573538,46.47516887573538 0 0,0 -0.7660104292860856,-0.23079265866453022 l 7.558809178587711 -24.327939350650617" fill="#f6ff19" stroke="none" /><path d="M 93.76903079525671 120.05430185196036 l -7.435975221480079 23.932599689586013 a46.06118623282701,46.06118623282701 0 0,0 -0.7551372971311133,-0.24177111609150645 l 7.846833863702132 -23.8010557268348" fill="#fcff18" stroke="none" /><path d="M 93.42475214034765 119.94407469862007 l -15.203972567705794 46.11676564571775 a69.55838604671291,69.55838604671291 0 0,0 -1.1339019462774655,-0.3846811043644054 l 15.995544246920485 -45.84822155445522" fill="#39ff88" stroke="none" /><path d="M 93.08242187328487 119.8279376855182 l -8.030567831170387 23.01811351010863 a45.37875241383927,45.37875241383927 0 0,0 -0.7353096099740991,-0.26365586507388 l 8.425597001774213 -22.876470103994794" fill="#fff917" stroke="none" /><path d="M 92.7421414339146 119.70592522655815 l -8.452185788630223 22.948661734746292 a45.455684820125796,45.455684820125796 0 0,0 -0.7319009844485378,-0.27674232604068727 l 8.845956993839042 -22.79977115859897" fill="#fffa17" stroke="none" /><path d="M 92.40401165467489 119.57807347666478 l -7.082401550562781 18.254343167008628 a40.58012911556838,40.58012911556838 0 0,0 -0.6490481000675987,-0.25826963384309376 l 7.395570726672238 -18.12972668875947" fill="#ffb510" stroke="none" /><path d="M 92.06813273071674 119.44442032107085 l -9.247467719743153 22.669523221165637 a45.48311545336213,45.48311545336213 0 0,0 -0.7223770054603948,-0.3019536468689559 l 9.63631618470101 -22.506984531276707" fill="#fffa17" stroke="none" /><path d="M 91.7346041902142 119.30500536409082 l -9.614153360513912 22.455220108899162 a45.42680607403658,45.42680607403658 0 0,0 -0.7161845860688362,-0.31395427580769475 l 9.999258621240491 -22.286401279797012" fill="#fffa17" stroke="none" /><path d="M 91.40352486487194 119.15986991738527 l -9.996533741973108 22.280328054261783 a45.42014957079361,45.42014957079361 0 0,0 -0.7105701319541147,-0.32618789631599615 l 10.378571869694643 -22.10495308761171" fill="#fffa17" stroke="none" /><path d="M 91.07499286063937 119.00905698771935 l -3.344154510880554 7.122596394653542 a28.86859255482036,28.86859255482036 0 0,0 -0.447995647918023,-0.21506513565134372 l 3.466262826798819 -7.063976982502637" fill="#ff0000" stroke="none" /><line stroke="#e1ed5e" stroke-width="0.3" x1="58.666819895761336" x2="56.23545636021788" y1="174.27360380694188" y2="178.64263932499728" /><path d="M 58.180547188652646 175.14741091055294 a86.0,86.0 0 0,1 -31.652253787137756,-30.449443065178592" fill="none" id="id68" stroke="none" /><text fill="#e1ed5e" style="font-size:6.75px; font-family:Arial;" text-anchor="middle"><textPath startOffset="22.20632615414155" xlink:href="#id68">August</textPath></text><path d="M 87.95078237400918 117.19931262002967 l -13.951932678698011 19.915289045565952 a45.31615025532127,45.31615025532127 0 0,0 -0.635014506058797,-0.45306598939210707 l 14.292674512605695 -19.672178794329625" fill="#fff817" stroke="none" /><path d="M 87.65650970185807 116.9893568818739 l -11.809862738476587 16.254881556485362 a41.092138570023494,41.092138570023494 0 0,0 -0.5686663364805634,-0.42068576083628384 l 12.087914045375715 -16.049185846909314" fill="#ffbd11" stroke="none" /><path d="M 87.36589467227662 116.77436683061367 l -14.621486898959388 19.413023596847985 a45.30336117306036,45.30336117306036 0 0,0 -0.6188682296778395,-0.47452176862185114 l 14.953483857130715 -19.15846248639877" fill="#fff817" stroke="none" /><path d="M 87.07902340077011 116.55440617244103 l -14.965074530309288 19.17331250258265 a45.32219907860726,45.32219907860726 0 0,0 -0.6108623267986687,-0.4853059769279376 l 15.292894349825314 -18.912872611649583" fill="#fff817" stroke="none" /><path d="M 84.19399662182784 113.82643327865904 l -11.31344214066638 9.8965278677539 a36.03114223561987,36.03114223561987 0 0,0 -0.40433374078783324,-0.4703314871500772 l 11.482118391024992 -9.700319281442292" fill="#ff720a" stroke="none" /><path d="M 83.72743513129214 113.27417163493432 l -18.79761806897687 15.333956913908155 a45.25862072964408,45.25862072964408 0 0,0 -0.48724587962262317,-0.6079141523081235 l 19.058781860654356 -15.008114928021772" fill="#fff717" stroke="none" /><path d="M 83.50135304334701 112.99209946851258 l -19.16854690754087 15.09455101039036 a45.39833315519466,45.39833315519466 0 0,0 -0.47818103826628555,-0.6181134514118135 l 19.425534763025222 -14.762359564865294" fill="#fff917" stroke="none" /><path d="M 82.44556493220864 111.52570212397912 l -20.374908626003275 13.377538309818846 a45.37407296183085,45.37407296183085 0 0,0 -0.4230487054619795,-0.6565809855566015 l 20.6021621948423 -13.024835724340797" fill="#fff917" stroke="none" /><path d="M 82.24976979558568 111.22182372390057 l -12.460131411121512 7.8773850627282975 a35.74137273828024,35.74137273828024 0 0,0 -0.3242854920690535,-0.5228514679638677 l 12.593881542858522 -7.661737263399165" fill="#ff6d0a" stroke="none" /><path d="M 82.05923443525364 110.91462005526583 l -20.851193237831538 12.68523637235749 a45.406709759080044,45.406709759080044 0 0,0 -0.4004852866191121,-0.6712363762442806 l 21.066459400148883 -12.324437902227098" fill="#fff917" stroke="none" /><line stroke="#e1ed5e" stroke-width="0.3" x1="26.63291911575756" x2="22.317208475507996" y1="142.92168965132927" y2="145.44649492493687" /><path d="M 25.769776987707644 143.4266507060508 a86.0,86.0 0 0,1 -11.730757126820373,-40.83630448921669" fill="none" id="id69" stroke="none" /><text fill="#e1ed5e" style="font-size:6.75px; font-family:Arial;" text-anchor="middle"><textPath startOffset="21.46611528233685" xlink:href="#id69">September</textPath></text><path d="M 81.69416730710424 110.29060199501025 l -21.242390602962413 11.941384518523785 a45.36874684402268,45.36874684402268 0 0,0 -0.3768276058676006,-0.684051561626825 l 21.44479461828153 -11.573962438499137" fill="#fff917" stroke="none" /><path d="M 81.51974371655577 109.97397251340807 l -12.828067056255545 6.923431485843141 a35.57714676947972,35.57714676947972 0 0,0 -0.2862223672008903,-0.5414248530287071 l 12.945341931681321 -6.701591617728307" fill="#ff6b09" stroke="none" /><path d="M 81.18737489456691 109.33194174019688 l -21.82446801219242 10.825956657253098 a45.362034840298804,45.362034840298804 0 0,0 -0.34096426061289636,-0.7024873671406048 l 22.007585529420034 -10.448680334147209" fill="#fff917" stroke="none" /><path d="M 80.87730276802145 108.67885076344099 l -22.25783971676108 10.101737577862202 a45.44292394434471,45.44292394434471 0 0,0 -0.31714598285343376,-0.7150804672402197 l 22.428426784345792 -9.717108774129287" fill="#fffa17" stroke="none" /><path d="M 80.73074385275274 108.34839909993369 l -31.292894212503093 13.557636469288493 a55.103588298422366,55.103588298422366 0 0,0 -0.3695850640293279,-0.8735899177023317 l 31.521630257724727 -13.016972025920003" fill="#87ff25" stroke="none" /><path d="M 80.58989483394504 108.01547362559985 l -22.62015400798634 9.341074986811737 a45.47298611232925,45.47298611232925 0 0,0 -0.2925372164612282,-0.7260533804542538 l 22.777593838704956 -8.950322238514678" fill="#fffa17" stroke="none" /><path d="M 80.20201598880116 107.00284435728193 l -23.79683908488283 8.417299469100179 a46.24164180049153,46.24164180049153 0 0,0 -0.25897338418936583,-0.7526978772083333 l 23.938203300015424 -8.006428888802548" fill="#f9ff18" stroke="none" /><path d="M 80.0844068197444 106.66101706037122 l -23.170340164381813 7.749607542825447 a45.43196841028127,45.43196841028127 0 0,0 -0.24167156776254242,-0.7437886055061137 l 23.300303983160603 -7.34962003734153" fill="#fffa17" stroke="none" /><path d="M 79.86692584326677 105.97154293290107 l -23.30239486133772 6.911574967171838 a45.3057909725344,45.3057909725344 0 0,0 -0.21532626336942903,-0.749578970940878 l 23.41791376159325 -6.509438520726364" fill="#fff817" stroke="none" /><path d="M 79.76711848015287 105.62410040840567 l -9.655991852382945 2.684059987564199 a31.022093427529448,31.022093427529448 0 0,0 -0.1385829647781771,-0.5157187660679072 l 9.700762893502898 -2.5174502883207523" fill="#ff2303" stroke="none" /><path d="M 79.67330655649465 105.27499134158121 l -23.541487374624094 6.109264274301488 a45.32128158183368,45.32128158183368 0 0,0 -0.18946170212060712,-0.7568053206467051 l 23.64316039103976 -5.703131114257391" fill="#fff817" stroke="none" /><path d="M 79.58551787078972 104.9243191809786 l -23.640916581268943 5.702589869300846 a45.318973416243736,45.318973416243736 0 0,0 -0.17639748760247514,-0.7599157598402942 l 23.735574634801974 -5.294805452111977" fill="#fff817" stroke="none" /><path d="M 79.50377843672027 104.57218783832718 l -24.94251441905161 5.564043144830224 a46.55557867985246,46.55557867985246 0 0,0 -0.16774631493099848,-0.7836549377338724 l 25.034594772707045 -5.133874387680188" fill="#f5ff19" stroke="none" /><path d="M 79.4281124754447 104.21870165774334 l -19.109977102746978 3.9189059334767453 a40.507666405363636,40.507666405363636 0 0,0 -0.1341962412771663,-0.6842637431339672 l 19.17460327699981 -3.5893784632748233" fill="#ffb410" stroke="none" /><path d="M 79.35854240842038 103.8639653848113 l -24.355317404081934 4.559179164937204 a45.77836960963279,45.77836960963279 0 0,0 -0.13832382931632217,-0.7757934936225144 l 24.430187675737447 -4.139266920581476" fill="#fffe18" stroke="none" /><path d="M 79.29508885075956 103.50808413554451 l -23.956476977180536 4.059004949184117 a45.2979075299846,45.2979075299846 0 0,0 -0.12363793289158068,-0.7698935261375085 l 24.022796664433407 -3.646032193353394" fill="#fff817" stroke="none" /><path d="M 79.23777060512086 103.15116336523772 l -24.52613050531939 3.722425105199147 a45.80700558769186,45.80700558769186 0 0,0 -0.11160756718962885,-0.7805830649797441 l 24.586572123525617 -3.2996965682390025" fill="#ffff18" stroke="none" /><path d="M 79.1416061653843 102.43462659150553 l -24.249605987735304 2.830454542156261 a45.41423485337234,45.41423485337234 0 0,0 -0.08394647981422042,-0.777240145004302 l 24.294734769050574 -2.4126180752671766" fill="#fff917" stroke="none" /><path d="M 79.10278846688536 102.07522291339032 l -24.441504985581833 2.427193269467909 a45.56172699806697,45.56172699806697 0 0,0 -0.0707842732202672,-0.7810985566273037 l 24.479663855079178 -2.006113324292039" fill="#fffc17" stroke="none" /><path d="M 79.04373962182676 101.35467743843564 l -24.320428370650294 1.5721476547945992 a45.371189638185655,45.371189638185655 0 0,0 -0.043672252721978354,-0.7797974097109394 l 24.343886974259803 -1.1532785287482223" fill="#fff917" stroke="none" /><line stroke="#e1ed5e" stroke-width="0.3" x1="15.007084014347285" x2="10.007500721073583" y1="101.09737516637583" y2="101.16192664675087" /><path d="M 14.007167355692545 101.11028546245083 a86.0,86.0 0 0,1 10.666146001902534,-42.60595125391555" fill="none" id="id70" stroke="none" /><text fill="#e1ed5e" style="font-size:6.75px; font-family:Arial;" text-anchor="middle"><textPath startOffset="22.20632615414155" xlink:href="#id70">October</textPath></text><path d="M 79.00175016825051 100.2711162175752 l -24.380824769948283 0.3147899013468165 a45.38285687004117,45.38285687004117 0 0,0 -0.0033620111163247543,-0.781212981455195 l 24.382631078354112 0.1049325583120539" fill="#fff917" stroke="none" /><path d="M 79.00019446554 99.90962569577889 l -24.785617550497168 -0.10666684208771503 a45.785847073979824,45.785847073979824 0 0,0 0.01017534392398229,-0.7880916005348446 l 24.78010919945547 0.5332947006830316" fill="#ffff18" stroke="none" /><path d="M 79.03285615573316 98.82574320788736 l -24.530709533514507 -1.3738329120562698 a45.56914990568271,45.56914990568271 0 0,0 0.05060217353484865,-0.7827932275319409 l 24.503426768975245 1.7958852038412223" fill="#fffc17" stroke="none" /><path d="M 79.05617556472873 98.46500227214037 l -29.110065195190387 -2.133511196608934 a50.18814426602504,50.18814426602504 0 0,0 0.07056337455218749,-0.8610519000103363 l 29.069027336818703 2.6342770138270484" fill="#c5ff1e" stroke="none" /><path d="M 79.12142395522702 97.74499172005258 l -24.21491063289487 -2.615351921427387 a45.355737776384416,45.355737776384416 0 0,0 0.09051633140333609,-0.7754886500717351 l 24.166303948487943 3.031784309823984" fill="#fff917" stroke="none" /><path d="M 79.16333360222342 97.38593545837743 l -24.578857110249857 -3.0835411777945323 a45.77152484287623,45.77152484287623 0 0,0 0.10480371636520198,-0.7809094193778251 l 24.52213739482682 3.506168939237017" fill="#fffe18" stroke="none" /><path d="M 79.21141760316559 97.0276538004421 l -19.265532744260117 -2.7545809493763156 a40.461461099486485,40.461461099486485 0 0,0 0.1045140860705749,-0.688617243374729 l 19.21526276475024 3.0857973051431364" fill="#ffb410" stroke="none" /><path d="M 79.32604984820605 96.31383870115002 l -23.994608650874582 -4.278234064631814 a45.37302876173582,45.37302876173582 0 0,0 0.1437121029573279,-0.7677158005221884 l 23.917410824007394 4.690627942616575" fill="#fff917" stroke="none" /><path d="M 79.3925641242962 95.95851677861259 l -24.021886070064667 -4.711117389073551 a45.47949422305939,45.47949422305939 0 0,0 0.15727394723373855,-0.7669236214172016 l 23.937232826915935 5.123916666654155" fill="#fffa17" stroke="none" /><path d="M 79.54389044137918 95.25157060432595 l -24.097656627862065 -5.593733293747302 a45.73836912805534,45.73836912805534 0 0,0 0.18462445102964048,-0.7653875424482174 l 23.99779937657161 6.007706067854917" fill="#fffe18" stroke="none" /><path d="M 79.71946130924805 94.55025226153421 l -18.77234952962295 -5.0444700190041525 a40.43830714426971,40.43830714426971 0 0,0 0.18642681464124553,-0.6706764422486743 l 18.68273594441534 5.36685776467177" fill="#ffb310" stroke="none" /><path d="M 79.91906864156998 93.8553929516997 l -23.250784319248407 -7.114557121703825 a45.314931513335466,45.314931513335466 0 0,0 0.23465477645212568,-0.7439197665533728 l 23.124874059028077 7.513727054683613" fill="#fff817" stroke="none" /><path d="M 80.02781315780177 93.51064311812611 l -23.73922890547401 -7.713343044770039 a45.96090242665107,45.96090242665107 0 0,0 0.2509524501395869,-0.7503158840866047 l 23.602939161562652 8.120832031778967" fill="#fdff18" stroke="none" /><path d="M 80.14247586403 93.16781622104843 l -23.022127418140684 -7.920997825618082 a45.34667446306685,45.34667446306685 0 0,0 0.26030485247824725,-0.7359168709844268 l 22.882369484852624 8.31611232302912" fill="#fff917" stroke="none" /><path d="M 80.38941819471856 92.48833698450439 l -22.643168740303757 -8.673269098745397 a45.24744702976214,45.24744702976214 0 0,0 0.28485734993909867,-0.7249308847185575 l 22.490517840482966 9.061748988359717" fill="#fff717" stroke="none" /><path d="M 80.52162464483688 92.15188598940014 l -22.487658416639476 -9.060596885891256 a45.244364231550364,45.244364231550364 0 0,0 0.2972733835512229,-0.7198710777825525 l 22.328363346202057 9.446342534127119" fill="#fff717" stroke="none" /><path d="M 80.65960295795068 91.81776055985345 l -23.325226414349192 -9.868080117636145 a46.32676829934564,46.32676829934564 0 0,0 0.3170279517895982,-0.7317442225443507 l 23.151907752716912 10.268123484767095" fill="#f8ff18" stroke="none" /><path d="M 80.803312248108 91.48605970444005 l -22.635604723417362 -10.039137462663367 a45.76196442508238,45.76196442508238 0 0,0 0.3255586407768017,-0.7173253105185349 l 22.459443765677207 10.427284782023973" fill="#fffe18" stroke="none" /><path d="M 81.10775173730289 90.83032412892265 l -22.736300414123683 -11.035452340344792 a46.27292157383673,46.27292157383673 0 0,0 0.35396578677280377,-0.7135734268488843 l 22.542974614397465 11.425185355692639" fill="#f9ff18" stroke="none" /><path d="M 81.26839172434947 90.50648371742162 l -21.86130996446951 -11.079705439706919 a45.508707554526104,45.508707554526104 0 0,0 0.36014847164939495,-0.6956922142704771 l 21.66735205966 11.454370376237732" fill="#fffb17" stroke="none" /><path d="M 81.6062741919709 89.86733742301443 l -21.37575555104009 -11.775391271314351 a45.40456442902367,45.40456442902367 0 0,0 0.38300341138319305,-0.6813203321816129 l 21.169894498364467 12.14159511343075" fill="#fff917" stroke="none" /><line stroke="#e1ed5e" stroke-width="0.3" x1="26.266209847984243" x2="21.928928074336255" y1="57.711370442889674" y2="55.22380399835377" /><path d="M 25.398753493254645 57.213857153982495 a86.0,86.0 0 0,1 29.58750427330803,-30.492523968695096" fill="none" id="id71" stroke="none" /><text fill="#e1ed5e" style="font-size:6.75px; font-family:Arial;" text-anchor="middle"><textPath startOffset="21.46611528233685" xlink:href="#id71">November</textPath></text><path d="M 81.96595687620814 89.24020034530311 l -33.294314444130144 -19.864660996995397 a59.77004166660339,59.77004166660339 0 0,0 0.5347545983299681,-0.8789959554001461 l 32.947444047513955 20.434824725602617" fill="#51ff2b" stroke="none" /><path d="M 82.54541684631803 88.32363383020206 l -12.080432567153618 -8.081290335133712 a35.53423904063337,35.53423904063337 0 0,0 0.34447150951198313,-0.5054694346571222 l 11.939536591972896 8.28803779306125" fill="#ff6a09" stroke="none" /><path d="M 82.95767976084542 87.72973835380427 l -19.871209527544117 -14.307027253786615 a45.48583257576007,45.48583257576007 0 0,0 0.4629534772564394,-0.6314680227002067 l 19.621993437774044 14.646957720158323" fill="#fffa17" stroke="none" /><path d="M 83.17141714833178 87.43820079747576 l -8.20276419664428 -6.123003799674431 a31.236040054463288,31.236040054463288 0 0,0 0.3253368329540266,-0.42810513661259914 l 8.096151423466145 6.263293712168057" fill="#ff2603" stroke="none" /><path d="M 83.39014120810768 87.1503855733568 l -19.284220452017138 -14.91853726340901 a45.38122048876387,45.38122048876387 0 0,0 0.48330117999891975,-0.6137434185953681 l 19.024565191424248 15.248273075957426" fill="#fff917" stroke="none" /><path d="M 83.6137871275137 86.86637796730984 l -19.2883256632522 -15.459678259760992 a45.71924672774233,45.71924672774233 0 0,0 0.497472229448599,-0.609842131525453 l 19.019354941727205 15.789404560894527" fill="#fffe18" stroke="none" /><path d="M 83.84228863543731 86.58626213691792 l -24.834534624001332 -20.617024891817376 a53.27717189253944,53.27717189253944 0 0,0 0.5918570831405503,-0.7005721051045707 l 24.47596692737366 21.041455946551064" fill="#9eff22" stroke="none" /><path d="M 84.5562425177563 85.77008943001954 l -18.035117148585236 -16.617594807387768 a45.52366016209069,45.52366016209069 0 0,0 0.5359493531228834,-0.5717134019235075 l 17.746400473491896 16.925577626189327" fill="#fffb17" stroke="none" /><path d="M 85.05521093208273 85.24692304244772 l -31.219248712030275 -30.818767445456814 a64.86841593904153,64.86841593904153 0 0,0 0.7912840887351656,-0.7878860633888816 l 30.684128823127796 31.351589359495804" fill="#32ff4c" stroke="none" /><path d="M 85.57189188830299 84.74124197986013 l -33.41576730562082 -35.33956797567948 a69.63639140942786,69.63639140942786 0 0,0 0.8780555926758145,-0.8160569794367147 l 32.80250382915015 35.90952954119084" fill="#39ff89" stroke="none" /><path d="M 86.10567301691215 84.25364557470407 l -16.10783256256953 -18.254906542956167 a45.34551052567679,45.34551052567679 0 0,0 0.5897209584804922,-0.5114002039874573 l 15.791217805442264 18.529471740363306" fill="#fff917" stroke="none" /><path d="M 86.37877921826538 84.01681056812374 l -31.526105922577706 -36.992846021969186 a69.60417689300695,69.60417689300695 0 0,0 0.9185844296219868,-0.7692880427344411 l 30.884663955996608 37.530035222097446" fill="#39ff89" stroke="none" /><path d="M 86.93701828274178 83.55741782278169 l -30.2411641577452 -38.065032743752475 a69.61558111756601,69.61558111756601 0 0,0 0.9446749653411677,-0.7373337946347857 l 29.581456637244603 38.579944927610484" fill="#39ff89" stroke="none" /><path d="M 87.22198572758235 83.33499621200491 l -29.5323726393283 -38.51592989415017 a69.53491412704093,69.53491412704093 0 0,0 0.9561178048696731,-0.7201281082269719 l 28.86500868070024 39.018574591883" fill="#39ff88" stroke="none" /><path d="M 87.51073957382395 83.11751280151077 l -14.463735840712905 -19.55150480018693 a45.31997110240174,45.31997110240174 0 0,0 0.6311446576956502,-0.4585534351392772 l 14.125045866663474 19.797577470142873" fill="#fff817" stroke="none" /><path d="M 87.80319425747018 82.90503203632743 l -14.208318412088307 -19.914291757993432 a45.463346629637016,45.463346629637016 0 0,0 0.6409657727309367,-0.44903748522207343 l 13.86342149977371 20.15591408597945" fill="#fffa17" stroke="none" /><path d="M 88.09926311788651 82.69761687909137 l -13.877254861647168 -20.17602629662285 a45.48775693315186,45.48775693315186 0 0,0 0.6489484971023182,-0.43817292208716246 l 13.527901670138311 20.41191113100868" fill="#fffa17" stroke="none" /><path d="M 88.39885842347998 82.49532879139004 l -13.433431765266876 -20.269367863781422 a45.316750658535284,45.316750658535284 0 0,0 0.6539271301832291,-0.42533239563768593 l 13.08253760929936 20.497599183578643" fill="#fff817" stroke="none" /><path d="M 88.70189139769569 82.29822771554957 l -13.206380773288194 -20.691635509930567 a45.54694020045871,45.54694020045871 0 0,0 0.6645100069270159,-0.416116105375434 l 12.848251613988936 20.91589595662893" fill="#fffb17" stroke="none" /><path d="M 89.00827224532344 82.1063720568725 l -25.39216474067205 -41.3363539091363 a69.51243330032824,69.51243330032824 0 0,0 1.0249374390141484,-0.6175133389027531 l 24.676865235440253 41.76731385749767" fill="#39ff88" stroke="none" /><line stroke="#e1ed5e" stroke-width="0.3" x1="56.762969772571076" x2="54.21961505331055" y1="26.818313649435495" y2="22.513508569990535" /><path d="M 56.25429882871897 25.957352633546506 a86.0,86.0 0 0,1 42.265352541879196,-11.944610805530505" fill="none" id="id72" stroke="none" /><text fill="#e1ed5e" style="font-size:6.75px; font-family:Arial;" text-anchor="middle"><textPath startOffset="22.20632615414155" xlink:href="#id72">December</textPath></text><path d="M 89.3179101791058 81.91981866633112 l -12.39672385505778 -20.982318909587757 a45.37081182813167,45.37081182813167 0 0,0 0.6758161043114613,-0.39147630852837767 l 12.033711018281 21.192599375506184" fill="#fff917" stroke="none" /><path d="M 89.94658935756843 81.56283822128135 l -11.706892894500857 -21.469517748639326 a45.453865412291236,45.453865412291236 0 0,0 0.6901519114830854,-0.3686552496399775 l 11.335595936489467 21.667851724781052" fill="#fffa17" stroke="none" /><path d="M 90.26544431104013 81.39251694778311 l -22.542086745802912 -43.08892059242496 a69.6292170682976,69.6292170682976 0 0,0 1.0667843023395334,-0.5464483537854066 l 21.797041955874615 43.47056147152288" fill="#39ff89" stroke="none" /><path d="M 90.91171255644093 81.06846463323043 l -12.617473317304569 -26.283075203030716 a50.15477105108289,50.15477105108289 0 0,0 0.781511137866379,-0.3669299581485507 l 12.163183968138583 26.496370143819274" fill="#c5ff1e" stroke="none" /><path d="M 91.23893434514133 80.91482961587045 l -10.173446110148403 -22.161910440457067 a45.38543171910093,45.38543171910093 0 0,0 0.7128060448602253,-0.31981529453129526 l 9.790457946821403 22.333746065504894" fill="#fff917" stroke="none" /><path d="M 91.56875222667455 80.76684994638697 l -9.9744470373905 -22.753457344580195 a45.843699700997405,45.843699700997405 0 0,0 0.7254574292202394,-0.31060301111381855 l 9.581305850379952 22.9217798836568" fill="#ffff18" stroke="none" /><path d="M 91.90106846888425 80.62456947434976 l -9.89440006748241 -23.67080896584436 a46.65553253769825,46.65553253769825 0 0,0 0.7436361577767507,-0.3033478603490766 l 9.485480040117277 23.837617712377014" fill="#f4ff19" stroke="none" /><path d="M 92.23578459929587 80.48803036053334 l -11.06168465403889 -27.798720668077678 a50.91871885905559,50.91871885905559 0 0,0 0.8171650224833431,-0.3170473333032044 l 10.581536466555871 27.985010705271435" fill="#bcff1f" stroke="none" /><path d="M 92.57280143429618 80.3572730644239 l -5.16408823741595 -13.657474513631737 a35.60117863099819,35.60117863099819 0 0,0 0.5750737626172622,-0.2118045200190619 l 4.928232149026118 13.74434230145712" fill="#ff6b09" stroke="none" /><path d="M 92.91201910852362 80.23233633223022 l -8.22197351416867 -22.930254694795554 a45.35975018007953,45.35975018007953 0 0,0 0.7372428108407038,-0.2572095405602654 l 7.826048699264682 23.06838508852803" fill="#fff917" stroke="none" /><path d="M 93.59665428221793 80.00007090966166 l -11.84169657285236 -36.985835562285004 a59.83526503017444,59.83526503017444 0 0,0 0.9836194626736399,-0.30561535506689835 l 11.20329173746799 37.18419105223443" fill="#50ff2b" stroke="none" /><path d="M 96.04723909329186 79.375362276772 l -6.42068522197167 -33.501724430970576 a55.11144585866064,55.11144585866064 0 0,0 0.9332332871625462,-0.17054241815190593 l 5.843056813706231 33.60728233047322" fill="#87ff25" stroke="none" /><path d="M 96.40284397218896 79.31037775812273 l -4.255520493235528 -24.476311499111738 a45.84349571356449,45.84349571356449 0 0,0 0.7786207623583636,-0.12847909726926005 l 3.833570524738278 24.545936859320626" fill="#ffff18" stroke="none" /><path d="M 98.19473922651362 79.07773832637324 l -2.1015800597028593 -24.35648554655259 a45.44698400471449,45.44698400471449 0 0,0 0.779978042818675,-0.06054130770747811 l 1.6820118275218503 24.389052116448532" fill="#fffa17" stroke="none" /><path d="M 98.91598698831166 79.02799685794201 l -1.2520161881357224 -24.222299131441623 a45.254635015773616,45.254635015773616 0 0,0 0.7782917291819879,-0.0335148790387223 l 0.8348836265644104 24.240261737004538" fill="#fff717" stroke="none" /><path d="M 99.63851952072746 79.00311137660856 l -0.4201434880148713 -24.404377357927142 a45.40799366557252,45.40799366557252 0 0,0 0.781623967287401,-0.006727684253935792 l 5.978234263230452e-15 24.40799366557252" fill="#fff917" stroke="none" /></svg>